<!-- Created with Inkscape (http://www.inkscape.org/) -->
<svg xmlns:dc="http://purl.org/dc/elements/1.1/" xmlns:cc="http://creativecommons.org/ns#" xmlns:rdf="http://www.w3.org/1999/02/22-rdf-syntax-ns#" xmlns:svg="http://www.w3.org/2000/svg" xmlns="http://www.w3.org/2000/svg" xmlns:sodipodi="http://sodipodi.sourceforge.net/DTD/sodipodi-0.dtd" xmlns:inkscape="http://www.inkscape.org/namespaces/inkscape" height="1968.25" id="svg2" inkscape:version="0.48.5 r10040" sodipodi:docname="output.svg" version="1.1" width="1968.25">
  <defs id="defs4"/>
  <sodipodi:namedview bordercolor="#666666" borderopacity="1.0" id="base" inkscape:current-layer="layer1" inkscape:cx="2091.441" inkscape:cy="695.413316" inkscape:document-units="px" inkscape:pageopacity="0.0" inkscape:pageshadow="2" inkscape:window-height="834" inkscape:window-maximized="1" inkscape:window-width="1600" inkscape:window-x="0" inkscape:window-y="27" inkscape:zoom="0.12374369" pagecolor="#ffffff" showgrid="false" fit-margin-top="0" fit-margin-left="0" fit-margin-right="0" fit-margin-bottom="0"/>
  <metadata id="metadata7">
    <rdf:RDF>
      <cc:Work rdf:about="">
        <dc:format>image/svg+xml</dc:format>
        <dc:type rdf:resource="http://purl.org/dc/dcmitype/StillImage"/>
        <dc:title/>
      </cc:Work>
    </rdf:RDF>
  </metadata>
  <g inkscape:label="Layer 1" inkscape:groupmode="layer" id="layer1">
  <path d="m 916.8214,1252.3048 c -10.1153,-2.6361 -30.6079,-9.3261 -33.5129,-10.9407 -0.8185,-0.4549 3.9944,-13.388 15.4703,-41.5715 9.1622,-22.5012 17.0136,-41.2731 17.4476,-41.7154 0.434,-0.4422 3.0183,0.066 5.7428,1.1288 2.7246,1.0632 10.0838,3.2142 16.354,4.7801 6.6386,1.6579 11.2345,3.296 11.0034,3.922 -0.2183,0.5911 -3.9667,20.5076 -8.3298,44.2589 l -7.933,43.184 -2.5653,-0.075 c -1.411,-0.041 -7.5657,-1.3783 -13.6771,-2.9709 z" id="0-0" transform="rotate(360 985 985)" class="yellow-square"/><path d="m 965.2179,1260.3687 c -12.7382,-1.0479 -27.2233,-3.0959 -28.8034,-4.0724 -1.0521,-0.6502 0.2777,-9.5089 6.5385,-43.5597 4.3226,-23.5089 8.0612,-43.4698 8.3082,-44.3574 0.3721,-1.3375 1.2891,-1.481 5.3551,-0.8383 2.6983,0.4266 10.1901,1.101 16.6483,1.4987 l 11.7421,0.723 0,45.8247 0,45.8246 -5.3033,-0.144 c -2.9168,-0.079 -9.4353,-0.4838 -14.4855,-0.8992 l 0,0 z" id="1-0" transform="rotate(360 985 985)" class="yellow-square"/><path d="m 987.027,1215.6343 0,-46.0009 5.8084,-0.5597 c 3.1946,-0.3078 10.8086,-1.2077 16.9201,-1.9998 6.1114,-0.7921 11.2316,-1.3242 11.3783,-1.1825 0.4396,0.4248 18.2594,89.9412 17.9648,90.2446 -0.7762,0.7992 -28.9671,4.2166 -39.6972,4.8122 l -12.3744,0.6869 0,-46.0008 z" id="2-0" transform="rotate(360 985 985)" class="black-square"/><path d="m 1041.0747,1254.0883 c -0.2404,-0.6945 -4.1178,-20.1273 -8.6164,-43.184 -4.4986,-23.0568 -8.4136,-42.8866 -8.7,-44.0664 -0.4685,-1.9303 0.2203,-2.3247 6.8804,-3.939 4.0706,-0.9866 11.4441,-3.3271 16.3856,-5.2011 4.9416,-1.874 9.235,-3.1569 9.5409,-2.851 0.3059,0.3059 8.5996,19.6502 18.4304,42.9872 l 17.8742,42.4309 -3.4042,1.4223 c -10.0176,4.1856 -42.2949,13.6328 -46.6594,13.6567 -0.7119,0 -1.4911,-0.5611 -1.7315,-1.2556 l 0,0 z" id="3-0" transform="rotate(360 985 985)" class="black-square"/><path d="m 902.5179,1343.2304 c -18.2404,-4.2868 -51.8376,-14.8779 -54.1469,-17.0693 -0.9983,-0.9472 31.9013,-81.4946 33.1549,-81.1727 0.5227,0.1341 6.8598,2.2908 14.0824,4.7925 7.2226,2.5016 18.4714,5.7892 24.9975,7.3056 9.4039,2.185 11.7706,3.0769 11.4073,4.2988 -0.2521,0.848 -3.6646,19.0427 -7.5832,40.4327 -8.5237,46.5263 -8.1079,44.4648 -8.9514,44.3729 -0.3726,-0.041 -6.2048,-1.3728 -12.9606,-2.9605 z" id="0-1" transform="rotate(360 985 985)" class="blue-square"/><path d="m 960.7631,1351.6618 c -1.9446,-0.1872 -8.7631,-0.8401 -15.1523,-1.4507 -11.723,-1.1205 -25.9539,-3.2996 -26.7505,-4.0962 -0.2374,-0.2373 3.0975,-19.5063 7.4107,-42.8198 7.8185,-42.2592 7.8499,-42.388 10.3081,-42.2886 1.3561,0.055 8.6024,0.8498 16.1027,1.7666 7.5004,0.9167 17.7824,1.6673 22.8488,1.668 l 9.2118,0 0.6261,3.7881 c 0.3444,2.0835 0.6311,21.8572 0.6373,43.9417 l 0.011,40.1535 -10.8592,-0.1616 c -5.9725,-0.089 -12.4501,-0.3149 -14.3946,-0.5022 z" id="1-1" transform="rotate(360 985 985)" class="blue-square"/><path d="m 987.8207,1314.6005 c -0.119,-20.92 -0.2327,-40.6501 -0.2525,-43.8447 l -0.036,-5.8084 14.6472,-0.6792 c 8.056,-0.3736 19.3866,-1.3964 25.1792,-2.2728 5.7926,-0.8765 11.068,-1.5937 11.7231,-1.5937 1.273,0 18.4217,83.4036 17.3659,84.4595 -1.8252,1.8251 -34.8136,6.0752 -55.1402,7.104 l -13.2701,0.6716 -0.2165,-38.0363 z" id="2-1" transform="rotate(360 985 985)" class="red-square"/><path d="m 1050.8213,1302.89 c -4.5788,-23.0908 -8.305,-42.274 -8.2805,-42.6293 0.024,-0.3554 5.1585,-1.8879 11.4088,-3.4056 6.2503,-1.5177 17.8853,-5.0094 25.8555,-7.7594 7.9702,-2.75 14.6058,-4.854 14.7458,-4.6756 0.5168,0.6583 27.6568,66.2161 30.1146,72.743 l 2.5452,6.7589 -12.4166,4.5726 c -14.9907,5.5207 -32.9336,11.0219 -45.998,14.1029 l -9.6497,2.2757 -8.3251,-41.9832 z" id="3-1" transform="rotate(360 985 985)" class="red-square"/><path d="m 882.2016,1439.1535 c -17.933,-4.2712 -38.2756,-10.3084 -52.7583,-15.6573 -6.9448,-2.5649 -13.877,-5.1258 -15.4048,-5.691 -1.5279,-0.5651 -2.7698,-1.5512 -2.7597,-2.1913 0.035,-2.2381 34.2727,-85.0041 35.0538,-84.7389 29.8788,10.1438 41.8984,13.8285 54.0665,16.5746 8.1908,1.8484 14.8842,3.5881 14.8743,3.8659 -0.01,0.2778 -3.7742,20.7333 -8.365,45.4568 -7.5651,40.7408 -8.5327,44.9697 -10.3287,45.1428 -1.0898,0.105 -7.56,-1.1377 -14.3781,-2.7616 l 0,0 z" id="0-2" transform="rotate(360 985 985)" class="blue-square"/><path d="m 963.2884,1450.2253 c -16.8261,-0.7724 -44.4531,-3.8257 -56.6639,-6.2625 l -6.1565,-1.2285 7.7552,-41.9214 c 4.2653,-23.0567 8.0893,-43.6804 8.4977,-45.8304 0.7328,-3.8577 0.7915,-3.9007 4.4622,-3.265 12.0007,2.0781 28.1998,3.7763 45.0853,4.7263 10.5733,0.5949 19.2812,1.1618 19.3509,1.2597 0.07,0.098 0.4414,21.2018 0.8261,46.8975 l 0.6995,46.7196 -3.3419,-0.1535 c -1.8381,-0.084 -11.0696,-0.5082 -20.5146,-0.9418 z" id="1-2" transform="rotate(360 985 985)" class="black-square"/><path d="m 988.6984,1428.2562 c -0.3637,-12.4955 -0.6612,-33.519 -0.6612,-46.719 l 0,-24 6.3134,-0.553 c 3.4724,-0.3041 11.3137,-0.8242 17.4252,-1.1556 12.3138,-0.6678 21.3803,-1.7252 36.1065,-4.2112 5.4135,-0.9139 10.0088,-1.4693 10.2118,-1.2343 0.454,0.5254 17.8713,88.8556 17.8451,90.4997 -0.049,3.0993 -42.994,8.6046 -75.8766,9.727 l -10.7031,0.3654 -0.6611,-22.719 z" id="2-2" transform="rotate(360 985 985)" class="red-square"/><path d="m 1069.266,1395.3573 -9.1576,-45.8618 13.2093,-3.2071 c 14.6441,-3.5554 37.0604,-10.6403 48.2017,-15.2346 3.9867,-1.644 7.3371,-2.8715 7.4455,-2.7279 0.1083,0.1436 7.9477,19.8076 17.4209,43.6977 l 17.2239,43.4365 -4.7352,2.1574 c -16.172,7.368 -70.3456,23.6015 -78.7616,23.6015 -1.4198,0 -3.1508,-7.3188 -10.8469,-45.8617 l 0,0 z" id="3-2" transform="rotate(360 985 985)" class="yellow-square"/><path d="m 808.2301,1498.9623 c 0,-8.7989 0.2998,-29.6738 0.6662,-46.3888 l 0.6663,-30.3908 5.1421,2.0756 c 19.273,7.7794 43.2368,15.1334 66.9249,20.5376 8.4237,1.9218 15.5832,3.4942 15.91,3.4942 0.7831,0 0.7534,18.8023 -0.072,45.294 l -0.6658,21.3761 -44.286,0 -44.2861,0 0,-15.9979 z" id="0-3" transform="rotate(360 985 985)" class="black-square"/><path d="m 899.4852,1491.4741 c 0.3653,-12.9173 0.6652,-27.8697 0.6664,-33.2276 l 0,-9.7416 3.7882,0.841 c 14.2768,3.17 53.8854,7.0254 72.1752,7.0254 l 10.9097,0 0,29.2944 0,29.2945 -44.1029,0 -44.103,0 0.6641,-23.4861 z" id="1-3" transform="rotate(360 985 985)" class="yellow-square"/><path d="m 989.0473,1485.6657 0,-29.2944 9.849,0 c 16.733,-0.01 50.7357,-3.5222 74.2462,-7.6719 l 3.7881,-0.6686 0,33.4672 0,33.4672 -43.9416,0 -43.9417,0 0,-29.2945 z" id="2-3" transform="rotate(360 985 985)" class="blue-square"/><path d="m 1078.9509,1481.3079 0,-33.6523 12.3744,-2.792 c 23.0879,-5.2092 52.5522,-14.5309 73.7411,-23.3297 1.6688,-0.693 1.7678,1.9016 1.7678,46.3461 l 0,47.0802 -43.9417,0 -43.9416,0 0,-33.6523 z" id="3-3" transform="rotate(360 985 985)" class="red-square"/><rect id="0-4" x="808" y="1516" height="90" width="89" transform="rotate(360 985 985)" class="black-square"/><rect id="0-5" x="808" y="1605" height="90" width="89" transform="rotate(360 985 985)" class="blue-square"/><rect id="0-6" x="808" y="1694" height="90" width="89" transform="rotate(360 985 985)" class="blue-square"/><rect id="0-7" x="808" y="1783" height="90" width="89" transform="rotate(360 985 985)" class="red-square"/><rect id="0-8" x="808" y="1872" height="90" width="89" transform="rotate(360 985 985)" class="red-square"/><rect id="1-4" x="898" y="1516" height="90" width="89" transform="rotate(360 985 985)" class="yellow-square"/><rect id="1-5" x="898" y="1605" height="90" width="89" transform="rotate(360 985 985)" class="black-square"/><rect id="1-6" x="898" y="1694" height="90" width="89" transform="rotate(360 985 985)" class="red-square"/><rect id="1-7" x="898" y="1783" height="90" width="89" transform="rotate(360 985 985)" class="blue-square"/><rect id="1-8" x="898" y="1872" height="90" width="89" transform="rotate(360 985 985)" class="blue-square"/><rect id="2-4" x="988" y="1516" height="90" width="89" transform="rotate(360 985 985)" class="blue-square"/><rect id="2-5" x="988" y="1605" height="90" width="89" transform="rotate(360 985 985)" class="red-square"/><rect id="2-6" x="988" y="1694" height="90" width="89" transform="rotate(360 985 985)" class="black-square"/><rect id="2-7" x="988" y="1783" height="90" width="89" transform="rotate(360 985 985)" class="yellow-square"/><rect id="2-8" x="988" y="1872" height="90" width="89" transform="rotate(360 985 985)" class="yellow-square"/><rect id="3-4" x="1078" y="1516" height="90" width="89" transform="rotate(360 985 985)" class="red-square"/><rect id="3-5" x="1078" y="1605" height="90" width="89" transform="rotate(360 985 985)" class="yellow-square"/><rect id="3-6" x="1078" y="1694" height="90" width="89" transform="rotate(360 985 985)" class="yellow-square"/><rect id="3-7" x="1078" y="1783" height="90" width="89" transform="rotate(360 985 985)" class="black-square"/><rect id="3-8" x="1078" y="1872" height="90" width="89" transform="rotate(360 985 985)" class="black-square"/><path d="m 916.8214,1252.3048 c -10.1153,-2.6361 -30.6079,-9.3261 -33.5129,-10.9407 -0.8185,-0.4549 3.9944,-13.388 15.4703,-41.5715 9.1622,-22.5012 17.0136,-41.2731 17.4476,-41.7154 0.434,-0.4422 3.0183,0.066 5.7428,1.1288 2.7246,1.0632 10.0838,3.2142 16.354,4.7801 6.6386,1.6579 11.2345,3.296 11.0034,3.922 -0.2183,0.5911 -3.9667,20.5076 -8.3298,44.2589 l -7.933,43.184 -2.5653,-0.075 c -1.411,-0.041 -7.5657,-1.3783 -13.6771,-2.9709 z" id="4-0" transform="rotate(315 985 985)" class="black-square"/><path d="m 965.2179,1260.3687 c -12.7382,-1.0479 -27.2233,-3.0959 -28.8034,-4.0724 -1.0521,-0.6502 0.2777,-9.5089 6.5385,-43.5597 4.3226,-23.5089 8.0612,-43.4698 8.3082,-44.3574 0.3721,-1.3375 1.2891,-1.481 5.3551,-0.8383 2.6983,0.4266 10.1901,1.101 16.6483,1.4987 l 11.7421,0.723 0,45.8247 0,45.8246 -5.3033,-0.144 c -2.9168,-0.079 -9.4353,-0.4838 -14.4855,-0.8992 l 0,0 z" id="5-0" transform="rotate(315 985 985)" class="black-square"/><path d="m 987.027,1215.6343 0,-46.0009 5.8084,-0.5597 c 3.1946,-0.3078 10.8086,-1.2077 16.9201,-1.9998 6.1114,-0.7921 11.2316,-1.3242 11.3783,-1.1825 0.4396,0.4248 18.2594,89.9412 17.9648,90.2446 -0.7762,0.7992 -28.9671,4.2166 -39.6972,4.8122 l -12.3744,0.6869 0,-46.0008 z" id="6-0" transform="rotate(315 985 985)" class="yellow-square"/><path d="m 1041.0747,1254.0883 c -0.2404,-0.6945 -4.1178,-20.1273 -8.6164,-43.184 -4.4986,-23.0568 -8.4136,-42.8866 -8.7,-44.0664 -0.4685,-1.9303 0.2203,-2.3247 6.8804,-3.939 4.0706,-0.9866 11.4441,-3.3271 16.3856,-5.2011 4.9416,-1.874 9.235,-3.1569 9.5409,-2.851 0.3059,0.3059 8.5996,19.6502 18.4304,42.9872 l 17.8742,42.4309 -3.4042,1.4223 c -10.0176,4.1856 -42.2949,13.6328 -46.6594,13.6567 -0.7119,0 -1.4911,-0.5611 -1.7315,-1.2556 l 0,0 z" id="7-0" transform="rotate(315 985 985)" class="yellow-square"/><path d="m 902.5179,1343.2304 c -18.2404,-4.2868 -51.8376,-14.8779 -54.1469,-17.0693 -0.9983,-0.9472 31.9013,-81.4946 33.1549,-81.1727 0.5227,0.1341 6.8598,2.2908 14.0824,4.7925 7.2226,2.5016 18.4714,5.7892 24.9975,7.3056 9.4039,2.185 11.7706,3.0769 11.4073,4.2988 -0.2521,0.848 -3.6646,19.0427 -7.5832,40.4327 -8.5237,46.5263 -8.1079,44.4648 -8.9514,44.3729 -0.3726,-0.041 -6.2048,-1.3728 -12.9606,-2.9605 z" id="4-1" transform="rotate(315 985 985)" class="red-square"/><path d="m 960.7631,1351.6618 c -1.9446,-0.1872 -8.7631,-0.8401 -15.1523,-1.4507 -11.723,-1.1205 -25.9539,-3.2996 -26.7505,-4.0962 -0.2374,-0.2373 3.0975,-19.5063 7.4107,-42.8198 7.8185,-42.2592 7.8499,-42.388 10.3081,-42.2886 1.3561,0.055 8.6024,0.8498 16.1027,1.7666 7.5004,0.9167 17.7824,1.6673 22.8488,1.668 l 9.2118,0 0.6261,3.7881 c 0.3444,2.0835 0.6311,21.8572 0.6373,43.9417 l 0.011,40.1535 -10.8592,-0.1616 c -5.9725,-0.089 -12.4501,-0.3149 -14.3946,-0.5022 z" id="5-1" transform="rotate(315 985 985)" class="red-square"/><path d="m 987.8207,1314.6005 c -0.119,-20.92 -0.2327,-40.6501 -0.2525,-43.8447 l -0.036,-5.8084 14.6472,-0.6792 c 8.056,-0.3736 19.3866,-1.3964 25.1792,-2.2728 5.7926,-0.8765 11.068,-1.5937 11.7231,-1.5937 1.273,0 18.4217,83.4036 17.3659,84.4595 -1.8252,1.8251 -34.8136,6.0752 -55.1402,7.104 l -13.2701,0.6716 -0.2165,-38.0363 z" id="6-1" transform="rotate(315 985 985)" class="blue-square"/><path d="m 1050.8213,1302.89 c -4.5788,-23.0908 -8.305,-42.274 -8.2805,-42.6293 0.024,-0.3554 5.1585,-1.8879 11.4088,-3.4056 6.2503,-1.5177 17.8853,-5.0094 25.8555,-7.7594 7.9702,-2.75 14.6058,-4.854 14.7458,-4.6756 0.5168,0.6583 27.6568,66.2161 30.1146,72.743 l 2.5452,6.7589 -12.4166,4.5726 c -14.9907,5.5207 -32.9336,11.0219 -45.998,14.1029 l -9.6497,2.2757 -8.3251,-41.9832 z" id="7-1" transform="rotate(315 985 985)" class="blue-square"/><path d="m 882.2016,1439.1535 c -17.933,-4.2712 -38.2756,-10.3084 -52.7583,-15.6573 -6.9448,-2.5649 -13.877,-5.1258 -15.4048,-5.691 -1.5279,-0.5651 -2.7698,-1.5512 -2.7597,-2.1913 0.035,-2.2381 34.2727,-85.0041 35.0538,-84.7389 29.8788,10.1438 41.8984,13.8285 54.0665,16.5746 8.1908,1.8484 14.8842,3.5881 14.8743,3.8659 -0.01,0.2778 -3.7742,20.7333 -8.365,45.4568 -7.5651,40.7408 -8.5327,44.9697 -10.3287,45.1428 -1.0898,0.105 -7.56,-1.1377 -14.3781,-2.7616 l 0,0 z" id="4-2" transform="rotate(315 985 985)" class="blue-square"/><path d="m 963.2884,1450.2253 c -16.8261,-0.7724 -44.4531,-3.8257 -56.6639,-6.2625 l -6.1565,-1.2285 7.7552,-41.9214 c 4.2653,-23.0567 8.0893,-43.6804 8.4977,-45.8304 0.7328,-3.8577 0.7915,-3.9007 4.4622,-3.265 12.0007,2.0781 28.1998,3.7763 45.0853,4.7263 10.5733,0.5949 19.2812,1.1618 19.3509,1.2597 0.07,0.098 0.4414,21.2018 0.8261,46.8975 l 0.6995,46.7196 -3.3419,-0.1535 c -1.8381,-0.084 -11.0696,-0.5082 -20.5146,-0.9418 z" id="5-2" transform="rotate(315 985 985)" class="black-square"/><path d="m 988.6984,1428.2562 c -0.3637,-12.4955 -0.6612,-33.519 -0.6612,-46.719 l 0,-24 6.3134,-0.553 c 3.4724,-0.3041 11.3137,-0.8242 17.4252,-1.1556 12.3138,-0.6678 21.3803,-1.7252 36.1065,-4.2112 5.4135,-0.9139 10.0088,-1.4693 10.2118,-1.2343 0.454,0.5254 17.8713,88.8556 17.8451,90.4997 -0.049,3.0993 -42.994,8.6046 -75.8766,9.727 l -10.7031,0.3654 -0.6611,-22.719 z" id="6-2" transform="rotate(315 985 985)" class="red-square"/><path d="m 1069.266,1395.3573 -9.1576,-45.8618 13.2093,-3.2071 c 14.6441,-3.5554 37.0604,-10.6403 48.2017,-15.2346 3.9867,-1.644 7.3371,-2.8715 7.4455,-2.7279 0.1083,0.1436 7.9477,19.8076 17.4209,43.6977 l 17.2239,43.4365 -4.7352,2.1574 c -16.172,7.368 -70.3456,23.6015 -78.7616,23.6015 -1.4198,0 -3.1508,-7.3188 -10.8469,-45.8617 l 0,0 z" id="7-2" transform="rotate(315 985 985)" class="yellow-square"/><path d="m 808.2301,1498.9623 c 0,-8.7989 0.2998,-29.6738 0.6662,-46.3888 l 0.6663,-30.3908 5.1421,2.0756 c 19.273,7.7794 43.2368,15.1334 66.9249,20.5376 8.4237,1.9218 15.5832,3.4942 15.91,3.4942 0.7831,0 0.7534,18.8023 -0.072,45.294 l -0.6658,21.3761 -44.286,0 -44.2861,0 0,-15.9979 z" id="4-3" transform="rotate(315 985 985)" class="black-square"/><path d="m 899.4852,1491.4741 c 0.3653,-12.9173 0.6652,-27.8697 0.6664,-33.2276 l 0,-9.7416 3.7882,0.841 c 14.2768,3.17 53.8854,7.0254 72.1752,7.0254 l 10.9097,0 0,29.2944 0,29.2945 -44.1029,0 -44.103,0 0.6641,-23.4861 z" id="5-3" transform="rotate(315 985 985)" class="yellow-square"/><path d="m 989.0473,1485.6657 0,-29.2944 9.849,0 c 16.733,-0.01 50.7357,-3.5222 74.2462,-7.6719 l 3.7881,-0.6686 0,33.4672 0,33.4672 -43.9416,0 -43.9417,0 0,-29.2945 z" id="6-3" transform="rotate(315 985 985)" class="blue-square"/><path d="m 1078.9509,1481.3079 0,-33.6523 12.3744,-2.792 c 23.0879,-5.2092 52.5522,-14.5309 73.7411,-23.3297 1.6688,-0.693 1.7678,1.9016 1.7678,46.3461 l 0,47.0802 -43.9417,0 -43.9416,0 0,-33.6523 z" id="7-3" transform="rotate(315 985 985)" class="red-square"/><rect id="4-4" x="808" y="1516" height="90" width="89" transform="rotate(315 985 985)" class="black-square"/><rect id="4-5" x="808" y="1605" height="90" width="89" transform="rotate(315 985 985)" class="blue-square"/><rect id="4-6" x="808" y="1694" height="90" width="89" transform="rotate(315 985 985)" class="blue-square"/><rect id="4-7" x="808" y="1783" height="90" width="89" transform="rotate(315 985 985)" class="red-square"/><rect id="4-8" x="808" y="1872" height="90" width="89" transform="rotate(315 985 985)" class="red-square"/><rect id="5-4" x="898" y="1516" height="90" width="89" transform="rotate(315 985 985)" class="yellow-square"/><rect id="5-5" x="898" y="1605" height="90" width="89" transform="rotate(315 985 985)" class="black-square"/><rect id="5-6" x="898" y="1694" height="90" width="89" transform="rotate(315 985 985)" class="red-square"/><rect id="5-7" x="898" y="1783" height="90" width="89" transform="rotate(315 985 985)" class="blue-square"/><rect id="5-8" x="898" y="1872" height="90" width="89" transform="rotate(315 985 985)" class="blue-square"/><rect id="6-4" x="988" y="1516" height="90" width="89" transform="rotate(315 985 985)" class="blue-square"/><rect id="6-5" x="988" y="1605" height="90" width="89" transform="rotate(315 985 985)" class="red-square"/><rect id="6-6" x="988" y="1694" height="90" width="89" transform="rotate(315 985 985)" class="black-square"/><rect id="6-7" x="988" y="1783" height="90" width="89" transform="rotate(315 985 985)" class="yellow-square"/><rect id="6-8" x="988" y="1872" height="90" width="89" transform="rotate(315 985 985)" class="yellow-square"/><rect id="7-4" x="1078" y="1516" height="90" width="89" transform="rotate(315 985 985)" class="red-square"/><rect id="7-5" x="1078" y="1605" height="90" width="89" transform="rotate(315 985 985)" class="yellow-square"/><rect id="7-6" x="1078" y="1694" height="90" width="89" transform="rotate(315 985 985)" class="yellow-square"/><rect id="7-7" x="1078" y="1783" height="90" width="89" transform="rotate(315 985 985)" class="black-square"/><rect id="7-8" x="1078" y="1872" height="90" width="89" transform="rotate(315 985 985)" class="black-square"/><path d="m 916.8214,1252.3048 c -10.1153,-2.6361 -30.6079,-9.3261 -33.5129,-10.9407 -0.8185,-0.4549 3.9944,-13.388 15.4703,-41.5715 9.1622,-22.5012 17.0136,-41.2731 17.4476,-41.7154 0.434,-0.4422 3.0183,0.066 5.7428,1.1288 2.7246,1.0632 10.0838,3.2142 16.354,4.7801 6.6386,1.6579 11.2345,3.296 11.0034,3.922 -0.2183,0.5911 -3.9667,20.5076 -8.3298,44.2589 l -7.933,43.184 -2.5653,-0.075 c -1.411,-0.041 -7.5657,-1.3783 -13.6771,-2.9709 z" id="8-0" transform="rotate(270 985 985)" class="yellow-square"/><path d="m 965.2179,1260.3687 c -12.7382,-1.0479 -27.2233,-3.0959 -28.8034,-4.0724 -1.0521,-0.6502 0.2777,-9.5089 6.5385,-43.5597 4.3226,-23.5089 8.0612,-43.4698 8.3082,-44.3574 0.3721,-1.3375 1.2891,-1.481 5.3551,-0.8383 2.6983,0.4266 10.1901,1.101 16.6483,1.4987 l 11.7421,0.723 0,45.8247 0,45.8246 -5.3033,-0.144 c -2.9168,-0.079 -9.4353,-0.4838 -14.4855,-0.8992 l 0,0 z" id="9-0" transform="rotate(270 985 985)" class="yellow-square"/><path d="m 987.027,1215.6343 0,-46.0009 5.8084,-0.5597 c 3.1946,-0.3078 10.8086,-1.2077 16.9201,-1.9998 6.1114,-0.7921 11.2316,-1.3242 11.3783,-1.1825 0.4396,0.4248 18.2594,89.9412 17.9648,90.2446 -0.7762,0.7992 -28.9671,4.2166 -39.6972,4.8122 l -12.3744,0.6869 0,-46.0008 z" id="10-0" transform="rotate(270 985 985)" class="black-square"/><path d="m 1041.0747,1254.0883 c -0.2404,-0.6945 -4.1178,-20.1273 -8.6164,-43.184 -4.4986,-23.0568 -8.4136,-42.8866 -8.7,-44.0664 -0.4685,-1.9303 0.2203,-2.3247 6.8804,-3.939 4.0706,-0.9866 11.4441,-3.3271 16.3856,-5.2011 4.9416,-1.874 9.235,-3.1569 9.5409,-2.851 0.3059,0.3059 8.5996,19.6502 18.4304,42.9872 l 17.8742,42.4309 -3.4042,1.4223 c -10.0176,4.1856 -42.2949,13.6328 -46.6594,13.6567 -0.7119,0 -1.4911,-0.5611 -1.7315,-1.2556 l 0,0 z" id="11-0" transform="rotate(270 985 985)" class="black-square"/><path d="m 902.5179,1343.2304 c -18.2404,-4.2868 -51.8376,-14.8779 -54.1469,-17.0693 -0.9983,-0.9472 31.9013,-81.4946 33.1549,-81.1727 0.5227,0.1341 6.8598,2.2908 14.0824,4.7925 7.2226,2.5016 18.4714,5.7892 24.9975,7.3056 9.4039,2.185 11.7706,3.0769 11.4073,4.2988 -0.2521,0.848 -3.6646,19.0427 -7.5832,40.4327 -8.5237,46.5263 -8.1079,44.4648 -8.9514,44.3729 -0.3726,-0.041 -6.2048,-1.3728 -12.9606,-2.9605 z" id="8-1" transform="rotate(270 985 985)" class="blue-square"/><path d="m 960.7631,1351.6618 c -1.9446,-0.1872 -8.7631,-0.8401 -15.1523,-1.4507 -11.723,-1.1205 -25.9539,-3.2996 -26.7505,-4.0962 -0.2374,-0.2373 3.0975,-19.5063 7.4107,-42.8198 7.8185,-42.2592 7.8499,-42.388 10.3081,-42.2886 1.3561,0.055 8.6024,0.8498 16.1027,1.7666 7.5004,0.9167 17.7824,1.6673 22.8488,1.668 l 9.2118,0 0.6261,3.7881 c 0.3444,2.0835 0.6311,21.8572 0.6373,43.9417 l 0.011,40.1535 -10.8592,-0.1616 c -5.9725,-0.089 -12.4501,-0.3149 -14.3946,-0.5022 z" id="9-1" transform="rotate(270 985 985)" class="blue-square"/><path d="m 987.8207,1314.6005 c -0.119,-20.92 -0.2327,-40.6501 -0.2525,-43.8447 l -0.036,-5.8084 14.6472,-0.6792 c 8.056,-0.3736 19.3866,-1.3964 25.1792,-2.2728 5.7926,-0.8765 11.068,-1.5937 11.7231,-1.5937 1.273,0 18.4217,83.4036 17.3659,84.4595 -1.8252,1.8251 -34.8136,6.0752 -55.1402,7.104 l -13.2701,0.6716 -0.2165,-38.0363 z" id="10-1" transform="rotate(270 985 985)" class="red-square"/><path d="m 1050.8213,1302.89 c -4.5788,-23.0908 -8.305,-42.274 -8.2805,-42.6293 0.024,-0.3554 5.1585,-1.8879 11.4088,-3.4056 6.2503,-1.5177 17.8853,-5.0094 25.8555,-7.7594 7.9702,-2.75 14.6058,-4.854 14.7458,-4.6756 0.5168,0.6583 27.6568,66.2161 30.1146,72.743 l 2.5452,6.7589 -12.4166,4.5726 c -14.9907,5.5207 -32.9336,11.0219 -45.998,14.1029 l -9.6497,2.2757 -8.3251,-41.9832 z" id="11-1" transform="rotate(270 985 985)" class="red-square"/><path d="m 882.2016,1439.1535 c -17.933,-4.2712 -38.2756,-10.3084 -52.7583,-15.6573 -6.9448,-2.5649 -13.877,-5.1258 -15.4048,-5.691 -1.5279,-0.5651 -2.7698,-1.5512 -2.7597,-2.1913 0.035,-2.2381 34.2727,-85.0041 35.0538,-84.7389 29.8788,10.1438 41.8984,13.8285 54.0665,16.5746 8.1908,1.8484 14.8842,3.5881 14.8743,3.8659 -0.01,0.2778 -3.7742,20.7333 -8.365,45.4568 -7.5651,40.7408 -8.5327,44.9697 -10.3287,45.1428 -1.0898,0.105 -7.56,-1.1377 -14.3781,-2.7616 l 0,0 z" id="8-2" transform="rotate(270 985 985)" class="blue-square"/><path d="m 963.2884,1450.2253 c -16.8261,-0.7724 -44.4531,-3.8257 -56.6639,-6.2625 l -6.1565,-1.2285 7.7552,-41.9214 c 4.2653,-23.0567 8.0893,-43.6804 8.4977,-45.8304 0.7328,-3.8577 0.7915,-3.9007 4.4622,-3.265 12.0007,2.0781 28.1998,3.7763 45.0853,4.7263 10.5733,0.5949 19.2812,1.1618 19.3509,1.2597 0.07,0.098 0.4414,21.2018 0.8261,46.8975 l 0.6995,46.7196 -3.3419,-0.1535 c -1.8381,-0.084 -11.0696,-0.5082 -20.5146,-0.9418 z" id="9-2" transform="rotate(270 985 985)" class="black-square"/><path d="m 988.6984,1428.2562 c -0.3637,-12.4955 -0.6612,-33.519 -0.6612,-46.719 l 0,-24 6.3134,-0.553 c 3.4724,-0.3041 11.3137,-0.8242 17.4252,-1.1556 12.3138,-0.6678 21.3803,-1.7252 36.1065,-4.2112 5.4135,-0.9139 10.0088,-1.4693 10.2118,-1.2343 0.454,0.5254 17.8713,88.8556 17.8451,90.4997 -0.049,3.0993 -42.994,8.6046 -75.8766,9.727 l -10.7031,0.3654 -0.6611,-22.719 z" id="10-2" transform="rotate(270 985 985)" class="red-square"/><path d="m 1069.266,1395.3573 -9.1576,-45.8618 13.2093,-3.2071 c 14.6441,-3.5554 37.0604,-10.6403 48.2017,-15.2346 3.9867,-1.644 7.3371,-2.8715 7.4455,-2.7279 0.1083,0.1436 7.9477,19.8076 17.4209,43.6977 l 17.2239,43.4365 -4.7352,2.1574 c -16.172,7.368 -70.3456,23.6015 -78.7616,23.6015 -1.4198,0 -3.1508,-7.3188 -10.8469,-45.8617 l 0,0 z" id="11-2" transform="rotate(270 985 985)" class="yellow-square"/><path d="m 808.2301,1498.9623 c 0,-8.7989 0.2998,-29.6738 0.6662,-46.3888 l 0.6663,-30.3908 5.1421,2.0756 c 19.273,7.7794 43.2368,15.1334 66.9249,20.5376 8.4237,1.9218 15.5832,3.4942 15.91,3.4942 0.7831,0 0.7534,18.8023 -0.072,45.294 l -0.6658,21.3761 -44.286,0 -44.2861,0 0,-15.9979 z" id="8-3" transform="rotate(270 985 985)" class="black-square"/><path d="m 899.4852,1491.4741 c 0.3653,-12.9173 0.6652,-27.8697 0.6664,-33.2276 l 0,-9.7416 3.7882,0.841 c 14.2768,3.17 53.8854,7.0254 72.1752,7.0254 l 10.9097,0 0,29.2944 0,29.2945 -44.1029,0 -44.103,0 0.6641,-23.4861 z" id="9-3" transform="rotate(270 985 985)" class="yellow-square"/><path d="m 989.0473,1485.6657 0,-29.2944 9.849,0 c 16.733,-0.01 50.7357,-3.5222 74.2462,-7.6719 l 3.7881,-0.6686 0,33.4672 0,33.4672 -43.9416,0 -43.9417,0 0,-29.2945 z" id="10-3" transform="rotate(270 985 985)" class="blue-square"/><path d="m 1078.9509,1481.3079 0,-33.6523 12.3744,-2.792 c 23.0879,-5.2092 52.5522,-14.5309 73.7411,-23.3297 1.6688,-0.693 1.7678,1.9016 1.7678,46.3461 l 0,47.0802 -43.9417,0 -43.9416,0 0,-33.6523 z" id="11-3" transform="rotate(270 985 985)" class="red-square"/><rect id="8-4" x="808" y="1516" height="90" width="89" transform="rotate(270 985 985)" class="black-square"/><rect id="8-5" x="808" y="1605" height="90" width="89" transform="rotate(270 985 985)" class="blue-square"/><rect id="8-6" x="808" y="1694" height="90" width="89" transform="rotate(270 985 985)" class="blue-square"/><rect id="8-7" x="808" y="1783" height="90" width="89" transform="rotate(270 985 985)" class="red-square"/><rect id="8-8" x="808" y="1872" height="90" width="89" transform="rotate(270 985 985)" class="red-square"/><rect id="9-4" x="898" y="1516" height="90" width="89" transform="rotate(270 985 985)" class="yellow-square"/><rect id="9-5" x="898" y="1605" height="90" width="89" transform="rotate(270 985 985)" class="black-square"/><rect id="9-6" x="898" y="1694" height="90" width="89" transform="rotate(270 985 985)" class="red-square"/><rect id="9-7" x="898" y="1783" height="90" width="89" transform="rotate(270 985 985)" class="blue-square"/><rect id="9-8" x="898" y="1872" height="90" width="89" transform="rotate(270 985 985)" class="blue-square"/><rect id="10-4" x="988" y="1516" height="90" width="89" transform="rotate(270 985 985)" class="blue-square"/><rect id="10-5" x="988" y="1605" height="90" width="89" transform="rotate(270 985 985)" class="red-square"/><rect id="10-6" x="988" y="1694" height="90" width="89" transform="rotate(270 985 985)" class="black-square"/><rect id="10-7" x="988" y="1783" height="90" width="89" transform="rotate(270 985 985)" class="yellow-square"/><rect id="10-8" x="988" y="1872" height="90" width="89" transform="rotate(270 985 985)" class="yellow-square"/><rect id="11-4" x="1078" y="1516" height="90" width="89" transform="rotate(270 985 985)" class="red-square"/><rect id="11-5" x="1078" y="1605" height="90" width="89" transform="rotate(270 985 985)" class="yellow-square"/><rect id="11-6" x="1078" y="1694" height="90" width="89" transform="rotate(270 985 985)" class="yellow-square"/><rect id="11-7" x="1078" y="1783" height="90" width="89" transform="rotate(270 985 985)" class="black-square"/><rect id="11-8" x="1078" y="1872" height="90" width="89" transform="rotate(270 985 985)" class="black-square"/><path d="m 916.8214,1252.3048 c -10.1153,-2.6361 -30.6079,-9.3261 -33.5129,-10.9407 -0.8185,-0.4549 3.9944,-13.388 15.4703,-41.5715 9.1622,-22.5012 17.0136,-41.2731 17.4476,-41.7154 0.434,-0.4422 3.0183,0.066 5.7428,1.1288 2.7246,1.0632 10.0838,3.2142 16.354,4.7801 6.6386,1.6579 11.2345,3.296 11.0034,3.922 -0.2183,0.5911 -3.9667,20.5076 -8.3298,44.2589 l -7.933,43.184 -2.5653,-0.075 c -1.411,-0.041 -7.5657,-1.3783 -13.6771,-2.9709 z" id="12-0" transform="rotate(225 985 985)" class="black-square"/><path d="m 965.2179,1260.3687 c -12.7382,-1.0479 -27.2233,-3.0959 -28.8034,-4.0724 -1.0521,-0.6502 0.2777,-9.5089 6.5385,-43.5597 4.3226,-23.5089 8.0612,-43.4698 8.3082,-44.3574 0.3721,-1.3375 1.2891,-1.481 5.3551,-0.8383 2.6983,0.4266 10.1901,1.101 16.6483,1.4987 l 11.7421,0.723 0,45.8247 0,45.8246 -5.3033,-0.144 c -2.9168,-0.079 -9.4353,-0.4838 -14.4855,-0.8992 l 0,0 z" id="13-0" transform="rotate(225 985 985)" class="black-square"/><path d="m 987.027,1215.6343 0,-46.0009 5.8084,-0.5597 c 3.1946,-0.3078 10.8086,-1.2077 16.9201,-1.9998 6.1114,-0.7921 11.2316,-1.3242 11.3783,-1.1825 0.4396,0.4248 18.2594,89.9412 17.9648,90.2446 -0.7762,0.7992 -28.9671,4.2166 -39.6972,4.8122 l -12.3744,0.6869 0,-46.0008 z" id="14-0" transform="rotate(225 985 985)" class="yellow-square"/><path d="m 1041.0747,1254.0883 c -0.2404,-0.6945 -4.1178,-20.1273 -8.6164,-43.184 -4.4986,-23.0568 -8.4136,-42.8866 -8.7,-44.0664 -0.4685,-1.9303 0.2203,-2.3247 6.8804,-3.939 4.0706,-0.9866 11.4441,-3.3271 16.3856,-5.2011 4.9416,-1.874 9.235,-3.1569 9.5409,-2.851 0.3059,0.3059 8.5996,19.6502 18.4304,42.9872 l 17.8742,42.4309 -3.4042,1.4223 c -10.0176,4.1856 -42.2949,13.6328 -46.6594,13.6567 -0.7119,0 -1.4911,-0.5611 -1.7315,-1.2556 l 0,0 z" id="15-0" transform="rotate(225 985 985)" class="yellow-square"/><path d="m 902.5179,1343.2304 c -18.2404,-4.2868 -51.8376,-14.8779 -54.1469,-17.0693 -0.9983,-0.9472 31.9013,-81.4946 33.1549,-81.1727 0.5227,0.1341 6.8598,2.2908 14.0824,4.7925 7.2226,2.5016 18.4714,5.7892 24.9975,7.3056 9.4039,2.185 11.7706,3.0769 11.4073,4.2988 -0.2521,0.848 -3.6646,19.0427 -7.5832,40.4327 -8.5237,46.5263 -8.1079,44.4648 -8.9514,44.3729 -0.3726,-0.041 -6.2048,-1.3728 -12.9606,-2.9605 z" id="12-1" transform="rotate(225 985 985)" class="red-square"/><path d="m 960.7631,1351.6618 c -1.9446,-0.1872 -8.7631,-0.8401 -15.1523,-1.4507 -11.723,-1.1205 -25.9539,-3.2996 -26.7505,-4.0962 -0.2374,-0.2373 3.0975,-19.5063 7.4107,-42.8198 7.8185,-42.2592 7.8499,-42.388 10.3081,-42.2886 1.3561,0.055 8.6024,0.8498 16.1027,1.7666 7.5004,0.9167 17.7824,1.6673 22.8488,1.668 l 9.2118,0 0.6261,3.7881 c 0.3444,2.0835 0.6311,21.8572 0.6373,43.9417 l 0.011,40.1535 -10.8592,-0.1616 c -5.9725,-0.089 -12.4501,-0.3149 -14.3946,-0.5022 z" id="13-1" transform="rotate(225 985 985)" class="red-square"/><path d="m 987.8207,1314.6005 c -0.119,-20.92 -0.2327,-40.6501 -0.2525,-43.8447 l -0.036,-5.8084 14.6472,-0.6792 c 8.056,-0.3736 19.3866,-1.3964 25.1792,-2.2728 5.7926,-0.8765 11.068,-1.5937 11.7231,-1.5937 1.273,0 18.4217,83.4036 17.3659,84.4595 -1.8252,1.8251 -34.8136,6.0752 -55.1402,7.104 l -13.2701,0.6716 -0.2165,-38.0363 z" id="14-1" transform="rotate(225 985 985)" class="blue-square"/><path d="m 1050.8213,1302.89 c -4.5788,-23.0908 -8.305,-42.274 -8.2805,-42.6293 0.024,-0.3554 5.1585,-1.8879 11.4088,-3.4056 6.2503,-1.5177 17.8853,-5.0094 25.8555,-7.7594 7.9702,-2.75 14.6058,-4.854 14.7458,-4.6756 0.5168,0.6583 27.6568,66.2161 30.1146,72.743 l 2.5452,6.7589 -12.4166,4.5726 c -14.9907,5.5207 -32.9336,11.0219 -45.998,14.1029 l -9.6497,2.2757 -8.3251,-41.9832 z" id="15-1" transform="rotate(225 985 985)" class="blue-square"/><path d="m 882.2016,1439.1535 c -17.933,-4.2712 -38.2756,-10.3084 -52.7583,-15.6573 -6.9448,-2.5649 -13.877,-5.1258 -15.4048,-5.691 -1.5279,-0.5651 -2.7698,-1.5512 -2.7597,-2.1913 0.035,-2.2381 34.2727,-85.0041 35.0538,-84.7389 29.8788,10.1438 41.8984,13.8285 54.0665,16.5746 8.1908,1.8484 14.8842,3.5881 14.8743,3.8659 -0.01,0.2778 -3.7742,20.7333 -8.365,45.4568 -7.5651,40.7408 -8.5327,44.9697 -10.3287,45.1428 -1.0898,0.105 -7.56,-1.1377 -14.3781,-2.7616 l 0,0 z" id="12-2" transform="rotate(225 985 985)" class="blue-square"/><path d="m 963.2884,1450.2253 c -16.8261,-0.7724 -44.4531,-3.8257 -56.6639,-6.2625 l -6.1565,-1.2285 7.7552,-41.9214 c 4.2653,-23.0567 8.0893,-43.6804 8.4977,-45.8304 0.7328,-3.8577 0.7915,-3.9007 4.4622,-3.265 12.0007,2.0781 28.1998,3.7763 45.0853,4.7263 10.5733,0.5949 19.2812,1.1618 19.3509,1.2597 0.07,0.098 0.4414,21.2018 0.8261,46.8975 l 0.6995,46.7196 -3.3419,-0.1535 c -1.8381,-0.084 -11.0696,-0.5082 -20.5146,-0.9418 z" id="13-2" transform="rotate(225 985 985)" class="black-square"/><path d="m 988.6984,1428.2562 c -0.3637,-12.4955 -0.6612,-33.519 -0.6612,-46.719 l 0,-24 6.3134,-0.553 c 3.4724,-0.3041 11.3137,-0.8242 17.4252,-1.1556 12.3138,-0.6678 21.3803,-1.7252 36.1065,-4.2112 5.4135,-0.9139 10.0088,-1.4693 10.2118,-1.2343 0.454,0.5254 17.8713,88.8556 17.8451,90.4997 -0.049,3.0993 -42.994,8.6046 -75.8766,9.727 l -10.7031,0.3654 -0.6611,-22.719 z" id="14-2" transform="rotate(225 985 985)" class="red-square"/><path d="m 1069.266,1395.3573 -9.1576,-45.8618 13.2093,-3.2071 c 14.6441,-3.5554 37.0604,-10.6403 48.2017,-15.2346 3.9867,-1.644 7.3371,-2.8715 7.4455,-2.7279 0.1083,0.1436 7.9477,19.8076 17.4209,43.6977 l 17.2239,43.4365 -4.7352,2.1574 c -16.172,7.368 -70.3456,23.6015 -78.7616,23.6015 -1.4198,0 -3.1508,-7.3188 -10.8469,-45.8617 l 0,0 z" id="15-2" transform="rotate(225 985 985)" class="yellow-square"/><path d="m 808.2301,1498.9623 c 0,-8.7989 0.2998,-29.6738 0.6662,-46.3888 l 0.6663,-30.3908 5.1421,2.0756 c 19.273,7.7794 43.2368,15.1334 66.9249,20.5376 8.4237,1.9218 15.5832,3.4942 15.91,3.4942 0.7831,0 0.7534,18.8023 -0.072,45.294 l -0.6658,21.3761 -44.286,0 -44.2861,0 0,-15.9979 z" id="12-3" transform="rotate(225 985 985)" class="black-square"/><path d="m 899.4852,1491.4741 c 0.3653,-12.9173 0.6652,-27.8697 0.6664,-33.2276 l 0,-9.7416 3.7882,0.841 c 14.2768,3.17 53.8854,7.0254 72.1752,7.0254 l 10.9097,0 0,29.2944 0,29.2945 -44.1029,0 -44.103,0 0.6641,-23.4861 z" id="13-3" transform="rotate(225 985 985)" class="yellow-square"/><path d="m 989.0473,1485.6657 0,-29.2944 9.849,0 c 16.733,-0.01 50.7357,-3.5222 74.2462,-7.6719 l 3.7881,-0.6686 0,33.4672 0,33.4672 -43.9416,0 -43.9417,0 0,-29.2945 z" id="14-3" transform="rotate(225 985 985)" class="blue-square"/><path d="m 1078.9509,1481.3079 0,-33.6523 12.3744,-2.792 c 23.0879,-5.2092 52.5522,-14.5309 73.7411,-23.3297 1.6688,-0.693 1.7678,1.9016 1.7678,46.3461 l 0,47.0802 -43.9417,0 -43.9416,0 0,-33.6523 z" id="15-3" transform="rotate(225 985 985)" class="red-square"/><rect id="12-4" x="808" y="1516" height="90" width="89" transform="rotate(225 985 985)" class="black-square"/><rect id="12-5" x="808" y="1605" height="90" width="89" transform="rotate(225 985 985)" class="blue-square"/><rect id="12-6" x="808" y="1694" height="90" width="89" transform="rotate(225 985 985)" class="blue-square"/><rect id="12-7" x="808" y="1783" height="90" width="89" transform="rotate(225 985 985)" class="red-square"/><rect id="12-8" x="808" y="1872" height="90" width="89" transform="rotate(225 985 985)" class="red-square"/><rect id="13-4" x="898" y="1516" height="90" width="89" transform="rotate(225 985 985)" class="yellow-square"/><rect id="13-5" x="898" y="1605" height="90" width="89" transform="rotate(225 985 985)" class="black-square"/><rect id="13-6" x="898" y="1694" height="90" width="89" transform="rotate(225 985 985)" class="red-square"/><rect id="13-7" x="898" y="1783" height="90" width="89" transform="rotate(225 985 985)" class="blue-square"/><rect id="13-8" x="898" y="1872" height="90" width="89" transform="rotate(225 985 985)" class="blue-square"/><rect id="14-4" x="988" y="1516" height="90" width="89" transform="rotate(225 985 985)" class="blue-square"/><rect id="14-5" x="988" y="1605" height="90" width="89" transform="rotate(225 985 985)" class="red-square"/><rect id="14-6" x="988" y="1694" height="90" width="89" transform="rotate(225 985 985)" class="black-square"/><rect id="14-7" x="988" y="1783" height="90" width="89" transform="rotate(225 985 985)" class="yellow-square"/><rect id="14-8" x="988" y="1872" height="90" width="89" transform="rotate(225 985 985)" class="yellow-square"/><rect id="15-4" x="1078" y="1516" height="90" width="89" transform="rotate(225 985 985)" class="red-square"/><rect id="15-5" x="1078" y="1605" height="90" width="89" transform="rotate(225 985 985)" class="yellow-square"/><rect id="15-6" x="1078" y="1694" height="90" width="89" transform="rotate(225 985 985)" class="yellow-square"/><rect id="15-7" x="1078" y="1783" height="90" width="89" transform="rotate(225 985 985)" class="black-square"/><rect id="15-8" x="1078" y="1872" height="90" width="89" transform="rotate(225 985 985)" class="black-square"/><path d="m 916.8214,1252.3048 c -10.1153,-2.6361 -30.6079,-9.3261 -33.5129,-10.9407 -0.8185,-0.4549 3.9944,-13.388 15.4703,-41.5715 9.1622,-22.5012 17.0136,-41.2731 17.4476,-41.7154 0.434,-0.4422 3.0183,0.066 5.7428,1.1288 2.7246,1.0632 10.0838,3.2142 16.354,4.7801 6.6386,1.6579 11.2345,3.296 11.0034,3.922 -0.2183,0.5911 -3.9667,20.5076 -8.3298,44.2589 l -7.933,43.184 -2.5653,-0.075 c -1.411,-0.041 -7.5657,-1.3783 -13.6771,-2.9709 z" id="16-0" transform="rotate(180 985 985)" class="yellow-square"/><path d="m 965.2179,1260.3687 c -12.7382,-1.0479 -27.2233,-3.0959 -28.8034,-4.0724 -1.0521,-0.6502 0.2777,-9.5089 6.5385,-43.5597 4.3226,-23.5089 8.0612,-43.4698 8.3082,-44.3574 0.3721,-1.3375 1.2891,-1.481 5.3551,-0.8383 2.6983,0.4266 10.1901,1.101 16.6483,1.4987 l 11.7421,0.723 0,45.8247 0,45.8246 -5.3033,-0.144 c -2.9168,-0.079 -9.4353,-0.4838 -14.4855,-0.8992 l 0,0 z" id="17-0" transform="rotate(180 985 985)" class="yellow-square"/><path d="m 987.027,1215.6343 0,-46.0009 5.8084,-0.5597 c 3.1946,-0.3078 10.8086,-1.2077 16.9201,-1.9998 6.1114,-0.7921 11.2316,-1.3242 11.3783,-1.1825 0.4396,0.4248 18.2594,89.9412 17.9648,90.2446 -0.7762,0.7992 -28.9671,4.2166 -39.6972,4.8122 l -12.3744,0.6869 0,-46.0008 z" id="18-0" transform="rotate(180 985 985)" class="black-square"/><path d="m 1041.0747,1254.0883 c -0.2404,-0.6945 -4.1178,-20.1273 -8.6164,-43.184 -4.4986,-23.0568 -8.4136,-42.8866 -8.7,-44.0664 -0.4685,-1.9303 0.2203,-2.3247 6.8804,-3.939 4.0706,-0.9866 11.4441,-3.3271 16.3856,-5.2011 4.9416,-1.874 9.235,-3.1569 9.5409,-2.851 0.3059,0.3059 8.5996,19.6502 18.4304,42.9872 l 17.8742,42.4309 -3.4042,1.4223 c -10.0176,4.1856 -42.2949,13.6328 -46.6594,13.6567 -0.7119,0 -1.4911,-0.5611 -1.7315,-1.2556 l 0,0 z" id="19-0" transform="rotate(180 985 985)" class="black-square"/><path d="m 902.5179,1343.2304 c -18.2404,-4.2868 -51.8376,-14.8779 -54.1469,-17.0693 -0.9983,-0.9472 31.9013,-81.4946 33.1549,-81.1727 0.5227,0.1341 6.8598,2.2908 14.0824,4.7925 7.2226,2.5016 18.4714,5.7892 24.9975,7.3056 9.4039,2.185 11.7706,3.0769 11.4073,4.2988 -0.2521,0.848 -3.6646,19.0427 -7.5832,40.4327 -8.5237,46.5263 -8.1079,44.4648 -8.9514,44.3729 -0.3726,-0.041 -6.2048,-1.3728 -12.9606,-2.9605 z" id="16-1" transform="rotate(180 985 985)" class="blue-square"/><path d="m 960.7631,1351.6618 c -1.9446,-0.1872 -8.7631,-0.8401 -15.1523,-1.4507 -11.723,-1.1205 -25.9539,-3.2996 -26.7505,-4.0962 -0.2374,-0.2373 3.0975,-19.5063 7.4107,-42.8198 7.8185,-42.2592 7.8499,-42.388 10.3081,-42.2886 1.3561,0.055 8.6024,0.8498 16.1027,1.7666 7.5004,0.9167 17.7824,1.6673 22.8488,1.668 l 9.2118,0 0.6261,3.7881 c 0.3444,2.0835 0.6311,21.8572 0.6373,43.9417 l 0.011,40.1535 -10.8592,-0.1616 c -5.9725,-0.089 -12.4501,-0.3149 -14.3946,-0.5022 z" id="17-1" transform="rotate(180 985 985)" class="blue-square"/><path d="m 987.8207,1314.6005 c -0.119,-20.92 -0.2327,-40.6501 -0.2525,-43.8447 l -0.036,-5.8084 14.6472,-0.6792 c 8.056,-0.3736 19.3866,-1.3964 25.1792,-2.2728 5.7926,-0.8765 11.068,-1.5937 11.7231,-1.5937 1.273,0 18.4217,83.4036 17.3659,84.4595 -1.8252,1.8251 -34.8136,6.0752 -55.1402,7.104 l -13.2701,0.6716 -0.2165,-38.0363 z" id="18-1" transform="rotate(180 985 985)" class="red-square"/><path d="m 1050.8213,1302.89 c -4.5788,-23.0908 -8.305,-42.274 -8.2805,-42.6293 0.024,-0.3554 5.1585,-1.8879 11.4088,-3.4056 6.2503,-1.5177 17.8853,-5.0094 25.8555,-7.7594 7.9702,-2.75 14.6058,-4.854 14.7458,-4.6756 0.5168,0.6583 27.6568,66.2161 30.1146,72.743 l 2.5452,6.7589 -12.4166,4.5726 c -14.9907,5.5207 -32.9336,11.0219 -45.998,14.1029 l -9.6497,2.2757 -8.3251,-41.9832 z" id="19-1" transform="rotate(180 985 985)" class="red-square"/><path d="m 882.2016,1439.1535 c -17.933,-4.2712 -38.2756,-10.3084 -52.7583,-15.6573 -6.9448,-2.5649 -13.877,-5.1258 -15.4048,-5.691 -1.5279,-0.5651 -2.7698,-1.5512 -2.7597,-2.1913 0.035,-2.2381 34.2727,-85.0041 35.0538,-84.7389 29.8788,10.1438 41.8984,13.8285 54.0665,16.5746 8.1908,1.8484 14.8842,3.5881 14.8743,3.8659 -0.01,0.2778 -3.7742,20.7333 -8.365,45.4568 -7.5651,40.7408 -8.5327,44.9697 -10.3287,45.1428 -1.0898,0.105 -7.56,-1.1377 -14.3781,-2.7616 l 0,0 z" id="16-2" transform="rotate(180 985 985)" class="blue-square"/><path d="m 963.2884,1450.2253 c -16.8261,-0.7724 -44.4531,-3.8257 -56.6639,-6.2625 l -6.1565,-1.2285 7.7552,-41.9214 c 4.2653,-23.0567 8.0893,-43.6804 8.4977,-45.8304 0.7328,-3.8577 0.7915,-3.9007 4.4622,-3.265 12.0007,2.0781 28.1998,3.7763 45.0853,4.7263 10.5733,0.5949 19.2812,1.1618 19.3509,1.2597 0.07,0.098 0.4414,21.2018 0.8261,46.8975 l 0.6995,46.7196 -3.3419,-0.1535 c -1.8381,-0.084 -11.0696,-0.5082 -20.5146,-0.9418 z" id="17-2" transform="rotate(180 985 985)" class="black-square"/><path d="m 988.6984,1428.2562 c -0.3637,-12.4955 -0.6612,-33.519 -0.6612,-46.719 l 0,-24 6.3134,-0.553 c 3.4724,-0.3041 11.3137,-0.8242 17.4252,-1.1556 12.3138,-0.6678 21.3803,-1.7252 36.1065,-4.2112 5.4135,-0.9139 10.0088,-1.4693 10.2118,-1.2343 0.454,0.5254 17.8713,88.8556 17.8451,90.4997 -0.049,3.0993 -42.994,8.6046 -75.8766,9.727 l -10.7031,0.3654 -0.6611,-22.719 z" id="18-2" transform="rotate(180 985 985)" class="red-square"/><path d="m 1069.266,1395.3573 -9.1576,-45.8618 13.2093,-3.2071 c 14.6441,-3.5554 37.0604,-10.6403 48.2017,-15.2346 3.9867,-1.644 7.3371,-2.8715 7.4455,-2.7279 0.1083,0.1436 7.9477,19.8076 17.4209,43.6977 l 17.2239,43.4365 -4.7352,2.1574 c -16.172,7.368 -70.3456,23.6015 -78.7616,23.6015 -1.4198,0 -3.1508,-7.3188 -10.8469,-45.8617 l 0,0 z" id="19-2" transform="rotate(180 985 985)" class="yellow-square"/><path d="m 808.2301,1498.9623 c 0,-8.7989 0.2998,-29.6738 0.6662,-46.3888 l 0.6663,-30.3908 5.1421,2.0756 c 19.273,7.7794 43.2368,15.1334 66.9249,20.5376 8.4237,1.9218 15.5832,3.4942 15.91,3.4942 0.7831,0 0.7534,18.8023 -0.072,45.294 l -0.6658,21.3761 -44.286,0 -44.2861,0 0,-15.9979 z" id="16-3" transform="rotate(180 985 985)" class="black-square"/><path d="m 899.4852,1491.4741 c 0.3653,-12.9173 0.6652,-27.8697 0.6664,-33.2276 l 0,-9.7416 3.7882,0.841 c 14.2768,3.17 53.8854,7.0254 72.1752,7.0254 l 10.9097,0 0,29.2944 0,29.2945 -44.1029,0 -44.103,0 0.6641,-23.4861 z" id="17-3" transform="rotate(180 985 985)" class="yellow-square"/><path d="m 989.0473,1485.6657 0,-29.2944 9.849,0 c 16.733,-0.01 50.7357,-3.5222 74.2462,-7.6719 l 3.7881,-0.6686 0,33.4672 0,33.4672 -43.9416,0 -43.9417,0 0,-29.2945 z" id="18-3" transform="rotate(180 985 985)" class="blue-square"/><path d="m 1078.9509,1481.3079 0,-33.6523 12.3744,-2.792 c 23.0879,-5.2092 52.5522,-14.5309 73.7411,-23.3297 1.6688,-0.693 1.7678,1.9016 1.7678,46.3461 l 0,47.0802 -43.9417,0 -43.9416,0 0,-33.6523 z" id="19-3" transform="rotate(180 985 985)" class="red-square"/><rect id="16-4" x="808" y="1516" height="90" width="89" transform="rotate(180 985 985)" class="black-square"/><rect id="16-5" x="808" y="1605" height="90" width="89" transform="rotate(180 985 985)" class="blue-square"/><rect id="16-6" x="808" y="1694" height="90" width="89" transform="rotate(180 985 985)" class="blue-square"/><rect id="16-7" x="808" y="1783" height="90" width="89" transform="rotate(180 985 985)" class="red-square"/><rect id="16-8" x="808" y="1872" height="90" width="89" transform="rotate(180 985 985)" class="red-square"/><rect id="17-4" x="898" y="1516" height="90" width="89" transform="rotate(180 985 985)" class="yellow-square"/><rect id="17-5" x="898" y="1605" height="90" width="89" transform="rotate(180 985 985)" class="black-square"/><rect id="17-6" x="898" y="1694" height="90" width="89" transform="rotate(180 985 985)" class="red-square"/><rect id="17-7" x="898" y="1783" height="90" width="89" transform="rotate(180 985 985)" class="blue-square"/><rect id="17-8" x="898" y="1872" height="90" width="89" transform="rotate(180 985 985)" class="blue-square"/><rect id="18-4" x="988" y="1516" height="90" width="89" transform="rotate(180 985 985)" class="blue-square"/><rect id="18-5" x="988" y="1605" height="90" width="89" transform="rotate(180 985 985)" class="red-square"/><rect id="18-6" x="988" y="1694" height="90" width="89" transform="rotate(180 985 985)" class="black-square"/><rect id="18-7" x="988" y="1783" height="90" width="89" transform="rotate(180 985 985)" class="yellow-square"/><rect id="18-8" x="988" y="1872" height="90" width="89" transform="rotate(180 985 985)" class="yellow-square"/><rect id="19-4" x="1078" y="1516" height="90" width="89" transform="rotate(180 985 985)" class="red-square"/><rect id="19-5" x="1078" y="1605" height="90" width="89" transform="rotate(180 985 985)" class="yellow-square"/><rect id="19-6" x="1078" y="1694" height="90" width="89" transform="rotate(180 985 985)" class="yellow-square"/><rect id="19-7" x="1078" y="1783" height="90" width="89" transform="rotate(180 985 985)" class="black-square"/><rect id="19-8" x="1078" y="1872" height="90" width="89" transform="rotate(180 985 985)" class="black-square"/><path d="m 916.8214,1252.3048 c -10.1153,-2.6361 -30.6079,-9.3261 -33.5129,-10.9407 -0.8185,-0.4549 3.9944,-13.388 15.4703,-41.5715 9.1622,-22.5012 17.0136,-41.2731 17.4476,-41.7154 0.434,-0.4422 3.0183,0.066 5.7428,1.1288 2.7246,1.0632 10.0838,3.2142 16.354,4.7801 6.6386,1.6579 11.2345,3.296 11.0034,3.922 -0.2183,0.5911 -3.9667,20.5076 -8.3298,44.2589 l -7.933,43.184 -2.5653,-0.075 c -1.411,-0.041 -7.5657,-1.3783 -13.6771,-2.9709 z" id="20-0" transform="rotate(135 985 985)" class="black-square"/><path d="m 965.2179,1260.3687 c -12.7382,-1.0479 -27.2233,-3.0959 -28.8034,-4.0724 -1.0521,-0.6502 0.2777,-9.5089 6.5385,-43.5597 4.3226,-23.5089 8.0612,-43.4698 8.3082,-44.3574 0.3721,-1.3375 1.2891,-1.481 5.3551,-0.8383 2.6983,0.4266 10.1901,1.101 16.6483,1.4987 l 11.7421,0.723 0,45.8247 0,45.8246 -5.3033,-0.144 c -2.9168,-0.079 -9.4353,-0.4838 -14.4855,-0.8992 l 0,0 z" id="21-0" transform="rotate(135 985 985)" class="black-square"/><path d="m 987.027,1215.6343 0,-46.0009 5.8084,-0.5597 c 3.1946,-0.3078 10.8086,-1.2077 16.9201,-1.9998 6.1114,-0.7921 11.2316,-1.3242 11.3783,-1.1825 0.4396,0.4248 18.2594,89.9412 17.9648,90.2446 -0.7762,0.7992 -28.9671,4.2166 -39.6972,4.8122 l -12.3744,0.6869 0,-46.0008 z" id="22-0" transform="rotate(135 985 985)" class="yellow-square"/><path d="m 1041.0747,1254.0883 c -0.2404,-0.6945 -4.1178,-20.1273 -8.6164,-43.184 -4.4986,-23.0568 -8.4136,-42.8866 -8.7,-44.0664 -0.4685,-1.9303 0.2203,-2.3247 6.8804,-3.939 4.0706,-0.9866 11.4441,-3.3271 16.3856,-5.2011 4.9416,-1.874 9.235,-3.1569 9.5409,-2.851 0.3059,0.3059 8.5996,19.6502 18.4304,42.9872 l 17.8742,42.4309 -3.4042,1.4223 c -10.0176,4.1856 -42.2949,13.6328 -46.6594,13.6567 -0.7119,0 -1.4911,-0.5611 -1.7315,-1.2556 l 0,0 z" id="23-0" transform="rotate(135 985 985)" class="yellow-square"/><path d="m 902.5179,1343.2304 c -18.2404,-4.2868 -51.8376,-14.8779 -54.1469,-17.0693 -0.9983,-0.9472 31.9013,-81.4946 33.1549,-81.1727 0.5227,0.1341 6.8598,2.2908 14.0824,4.7925 7.2226,2.5016 18.4714,5.7892 24.9975,7.3056 9.4039,2.185 11.7706,3.0769 11.4073,4.2988 -0.2521,0.848 -3.6646,19.0427 -7.5832,40.4327 -8.5237,46.5263 -8.1079,44.4648 -8.9514,44.3729 -0.3726,-0.041 -6.2048,-1.3728 -12.9606,-2.9605 z" id="20-1" transform="rotate(135 985 985)" class="red-square"/><path d="m 960.7631,1351.6618 c -1.9446,-0.1872 -8.7631,-0.8401 -15.1523,-1.4507 -11.723,-1.1205 -25.9539,-3.2996 -26.7505,-4.0962 -0.2374,-0.2373 3.0975,-19.5063 7.4107,-42.8198 7.8185,-42.2592 7.8499,-42.388 10.3081,-42.2886 1.3561,0.055 8.6024,0.8498 16.1027,1.7666 7.5004,0.9167 17.7824,1.6673 22.8488,1.668 l 9.2118,0 0.6261,3.7881 c 0.3444,2.0835 0.6311,21.8572 0.6373,43.9417 l 0.011,40.1535 -10.8592,-0.1616 c -5.9725,-0.089 -12.4501,-0.3149 -14.3946,-0.5022 z" id="21-1" transform="rotate(135 985 985)" class="red-square"/><path d="m 987.8207,1314.6005 c -0.119,-20.92 -0.2327,-40.6501 -0.2525,-43.8447 l -0.036,-5.8084 14.6472,-0.6792 c 8.056,-0.3736 19.3866,-1.3964 25.1792,-2.2728 5.7926,-0.8765 11.068,-1.5937 11.7231,-1.5937 1.273,0 18.4217,83.4036 17.3659,84.4595 -1.8252,1.8251 -34.8136,6.0752 -55.1402,7.104 l -13.2701,0.6716 -0.2165,-38.0363 z" id="22-1" transform="rotate(135 985 985)" class="blue-square"/><path d="m 1050.8213,1302.89 c -4.5788,-23.0908 -8.305,-42.274 -8.2805,-42.6293 0.024,-0.3554 5.1585,-1.8879 11.4088,-3.4056 6.2503,-1.5177 17.8853,-5.0094 25.8555,-7.7594 7.9702,-2.75 14.6058,-4.854 14.7458,-4.6756 0.5168,0.6583 27.6568,66.2161 30.1146,72.743 l 2.5452,6.7589 -12.4166,4.5726 c -14.9907,5.5207 -32.9336,11.0219 -45.998,14.1029 l -9.6497,2.2757 -8.3251,-41.9832 z" id="23-1" transform="rotate(135 985 985)" class="blue-square"/><path d="m 882.2016,1439.1535 c -17.933,-4.2712 -38.2756,-10.3084 -52.7583,-15.6573 -6.9448,-2.5649 -13.877,-5.1258 -15.4048,-5.691 -1.5279,-0.5651 -2.7698,-1.5512 -2.7597,-2.1913 0.035,-2.2381 34.2727,-85.0041 35.0538,-84.7389 29.8788,10.1438 41.8984,13.8285 54.0665,16.5746 8.1908,1.8484 14.8842,3.5881 14.8743,3.8659 -0.01,0.2778 -3.7742,20.7333 -8.365,45.4568 -7.5651,40.7408 -8.5327,44.9697 -10.3287,45.1428 -1.0898,0.105 -7.56,-1.1377 -14.3781,-2.7616 l 0,0 z" id="20-2" transform="rotate(135 985 985)" class="blue-square"/><path d="m 963.2884,1450.2253 c -16.8261,-0.7724 -44.4531,-3.8257 -56.6639,-6.2625 l -6.1565,-1.2285 7.7552,-41.9214 c 4.2653,-23.0567 8.0893,-43.6804 8.4977,-45.8304 0.7328,-3.8577 0.7915,-3.9007 4.4622,-3.265 12.0007,2.0781 28.1998,3.7763 45.0853,4.7263 10.5733,0.5949 19.2812,1.1618 19.3509,1.2597 0.07,0.098 0.4414,21.2018 0.8261,46.8975 l 0.6995,46.7196 -3.3419,-0.1535 c -1.8381,-0.084 -11.0696,-0.5082 -20.5146,-0.9418 z" id="21-2" transform="rotate(135 985 985)" class="black-square"/><path d="m 988.6984,1428.2562 c -0.3637,-12.4955 -0.6612,-33.519 -0.6612,-46.719 l 0,-24 6.3134,-0.553 c 3.4724,-0.3041 11.3137,-0.8242 17.4252,-1.1556 12.3138,-0.6678 21.3803,-1.7252 36.1065,-4.2112 5.4135,-0.9139 10.0088,-1.4693 10.2118,-1.2343 0.454,0.5254 17.8713,88.8556 17.8451,90.4997 -0.049,3.0993 -42.994,8.6046 -75.8766,9.727 l -10.7031,0.3654 -0.6611,-22.719 z" id="22-2" transform="rotate(135 985 985)" class="red-square"/><path d="m 1069.266,1395.3573 -9.1576,-45.8618 13.2093,-3.2071 c 14.6441,-3.5554 37.0604,-10.6403 48.2017,-15.2346 3.9867,-1.644 7.3371,-2.8715 7.4455,-2.7279 0.1083,0.1436 7.9477,19.8076 17.4209,43.6977 l 17.2239,43.4365 -4.7352,2.1574 c -16.172,7.368 -70.3456,23.6015 -78.7616,23.6015 -1.4198,0 -3.1508,-7.3188 -10.8469,-45.8617 l 0,0 z" id="23-2" transform="rotate(135 985 985)" class="yellow-square"/><path d="m 808.2301,1498.9623 c 0,-8.7989 0.2998,-29.6738 0.6662,-46.3888 l 0.6663,-30.3908 5.1421,2.0756 c 19.273,7.7794 43.2368,15.1334 66.9249,20.5376 8.4237,1.9218 15.5832,3.4942 15.91,3.4942 0.7831,0 0.7534,18.8023 -0.072,45.294 l -0.6658,21.3761 -44.286,0 -44.2861,0 0,-15.9979 z" id="20-3" transform="rotate(135 985 985)" class="black-square"/><path d="m 899.4852,1491.4741 c 0.3653,-12.9173 0.6652,-27.8697 0.6664,-33.2276 l 0,-9.7416 3.7882,0.841 c 14.2768,3.17 53.8854,7.0254 72.1752,7.0254 l 10.9097,0 0,29.2944 0,29.2945 -44.1029,0 -44.103,0 0.6641,-23.4861 z" id="21-3" transform="rotate(135 985 985)" class="yellow-square"/><path d="m 989.0473,1485.6657 0,-29.2944 9.849,0 c 16.733,-0.01 50.7357,-3.5222 74.2462,-7.6719 l 3.7881,-0.6686 0,33.4672 0,33.4672 -43.9416,0 -43.9417,0 0,-29.2945 z" id="22-3" transform="rotate(135 985 985)" class="blue-square"/><path d="m 1078.9509,1481.3079 0,-33.6523 12.3744,-2.792 c 23.0879,-5.2092 52.5522,-14.5309 73.7411,-23.3297 1.6688,-0.693 1.7678,1.9016 1.7678,46.3461 l 0,47.0802 -43.9417,0 -43.9416,0 0,-33.6523 z" id="23-3" transform="rotate(135 985 985)" class="red-square"/><rect id="20-4" x="808" y="1516" height="90" width="89" transform="rotate(135 985 985)" class="black-square"/><rect id="20-5" x="808" y="1605" height="90" width="89" transform="rotate(135 985 985)" class="blue-square"/><rect id="20-6" x="808" y="1694" height="90" width="89" transform="rotate(135 985 985)" class="blue-square"/><rect id="20-7" x="808" y="1783" height="90" width="89" transform="rotate(135 985 985)" class="red-square"/><rect id="20-8" x="808" y="1872" height="90" width="89" transform="rotate(135 985 985)" class="red-square"/><rect id="21-4" x="898" y="1516" height="90" width="89" transform="rotate(135 985 985)" class="yellow-square"/><rect id="21-5" x="898" y="1605" height="90" width="89" transform="rotate(135 985 985)" class="black-square"/><rect id="21-6" x="898" y="1694" height="90" width="89" transform="rotate(135 985 985)" class="red-square"/><rect id="21-7" x="898" y="1783" height="90" width="89" transform="rotate(135 985 985)" class="blue-square"/><rect id="21-8" x="898" y="1872" height="90" width="89" transform="rotate(135 985 985)" class="blue-square"/><rect id="22-4" x="988" y="1516" height="90" width="89" transform="rotate(135 985 985)" class="blue-square"/><rect id="22-5" x="988" y="1605" height="90" width="89" transform="rotate(135 985 985)" class="red-square"/><rect id="22-6" x="988" y="1694" height="90" width="89" transform="rotate(135 985 985)" class="black-square"/><rect id="22-7" x="988" y="1783" height="90" width="89" transform="rotate(135 985 985)" class="yellow-square"/><rect id="22-8" x="988" y="1872" height="90" width="89" transform="rotate(135 985 985)" class="yellow-square"/><rect id="23-4" x="1078" y="1516" height="90" width="89" transform="rotate(135 985 985)" class="red-square"/><rect id="23-5" x="1078" y="1605" height="90" width="89" transform="rotate(135 985 985)" class="yellow-square"/><rect id="23-6" x="1078" y="1694" height="90" width="89" transform="rotate(135 985 985)" class="yellow-square"/><rect id="23-7" x="1078" y="1783" height="90" width="89" transform="rotate(135 985 985)" class="black-square"/><rect id="23-8" x="1078" y="1872" height="90" width="89" transform="rotate(135 985 985)" class="black-square"/><path d="m 916.8214,1252.3048 c -10.1153,-2.6361 -30.6079,-9.3261 -33.5129,-10.9407 -0.8185,-0.4549 3.9944,-13.388 15.4703,-41.5715 9.1622,-22.5012 17.0136,-41.2731 17.4476,-41.7154 0.434,-0.4422 3.0183,0.066 5.7428,1.1288 2.7246,1.0632 10.0838,3.2142 16.354,4.7801 6.6386,1.6579 11.2345,3.296 11.0034,3.922 -0.2183,0.5911 -3.9667,20.5076 -8.3298,44.2589 l -7.933,43.184 -2.5653,-0.075 c -1.411,-0.041 -7.5657,-1.3783 -13.6771,-2.9709 z" id="24-0" transform="rotate(90 985 985)" class="yellow-square"/><path d="m 965.2179,1260.3687 c -12.7382,-1.0479 -27.2233,-3.0959 -28.8034,-4.0724 -1.0521,-0.6502 0.2777,-9.5089 6.5385,-43.5597 4.3226,-23.5089 8.0612,-43.4698 8.3082,-44.3574 0.3721,-1.3375 1.2891,-1.481 5.3551,-0.8383 2.6983,0.4266 10.1901,1.101 16.6483,1.4987 l 11.7421,0.723 0,45.8247 0,45.8246 -5.3033,-0.144 c -2.9168,-0.079 -9.4353,-0.4838 -14.4855,-0.8992 l 0,0 z" id="25-0" transform="rotate(90 985 985)" class="yellow-square"/><path d="m 987.027,1215.6343 0,-46.0009 5.8084,-0.5597 c 3.1946,-0.3078 10.8086,-1.2077 16.9201,-1.9998 6.1114,-0.7921 11.2316,-1.3242 11.3783,-1.1825 0.4396,0.4248 18.2594,89.9412 17.9648,90.2446 -0.7762,0.7992 -28.9671,4.2166 -39.6972,4.8122 l -12.3744,0.6869 0,-46.0008 z" id="26-0" transform="rotate(90 985 985)" class="black-square"/><path d="m 1041.0747,1254.0883 c -0.2404,-0.6945 -4.1178,-20.1273 -8.6164,-43.184 -4.4986,-23.0568 -8.4136,-42.8866 -8.7,-44.0664 -0.4685,-1.9303 0.2203,-2.3247 6.8804,-3.939 4.0706,-0.9866 11.4441,-3.3271 16.3856,-5.2011 4.9416,-1.874 9.235,-3.1569 9.5409,-2.851 0.3059,0.3059 8.5996,19.6502 18.4304,42.9872 l 17.8742,42.4309 -3.4042,1.4223 c -10.0176,4.1856 -42.2949,13.6328 -46.6594,13.6567 -0.7119,0 -1.4911,-0.5611 -1.7315,-1.2556 l 0,0 z" id="27-0" transform="rotate(90 985 985)" class="black-square"/><path d="m 902.5179,1343.2304 c -18.2404,-4.2868 -51.8376,-14.8779 -54.1469,-17.0693 -0.9983,-0.9472 31.9013,-81.4946 33.1549,-81.1727 0.5227,0.1341 6.8598,2.2908 14.0824,4.7925 7.2226,2.5016 18.4714,5.7892 24.9975,7.3056 9.4039,2.185 11.7706,3.0769 11.4073,4.2988 -0.2521,0.848 -3.6646,19.0427 -7.5832,40.4327 -8.5237,46.5263 -8.1079,44.4648 -8.9514,44.3729 -0.3726,-0.041 -6.2048,-1.3728 -12.9606,-2.9605 z" id="24-1" transform="rotate(90 985 985)" class="blue-square"/><path d="m 960.7631,1351.6618 c -1.9446,-0.1872 -8.7631,-0.8401 -15.1523,-1.4507 -11.723,-1.1205 -25.9539,-3.2996 -26.7505,-4.0962 -0.2374,-0.2373 3.0975,-19.5063 7.4107,-42.8198 7.8185,-42.2592 7.8499,-42.388 10.3081,-42.2886 1.3561,0.055 8.6024,0.8498 16.1027,1.7666 7.5004,0.9167 17.7824,1.6673 22.8488,1.668 l 9.2118,0 0.6261,3.7881 c 0.3444,2.0835 0.6311,21.8572 0.6373,43.9417 l 0.011,40.1535 -10.8592,-0.1616 c -5.9725,-0.089 -12.4501,-0.3149 -14.3946,-0.5022 z" id="25-1" transform="rotate(90 985 985)" class="blue-square"/><path d="m 987.8207,1314.6005 c -0.119,-20.92 -0.2327,-40.6501 -0.2525,-43.8447 l -0.036,-5.8084 14.6472,-0.6792 c 8.056,-0.3736 19.3866,-1.3964 25.1792,-2.2728 5.7926,-0.8765 11.068,-1.5937 11.7231,-1.5937 1.273,0 18.4217,83.4036 17.3659,84.4595 -1.8252,1.8251 -34.8136,6.0752 -55.1402,7.104 l -13.2701,0.6716 -0.2165,-38.0363 z" id="26-1" transform="rotate(90 985 985)" class="red-square"/><path d="m 1050.8213,1302.89 c -4.5788,-23.0908 -8.305,-42.274 -8.2805,-42.6293 0.024,-0.3554 5.1585,-1.8879 11.4088,-3.4056 6.2503,-1.5177 17.8853,-5.0094 25.8555,-7.7594 7.9702,-2.75 14.6058,-4.854 14.7458,-4.6756 0.5168,0.6583 27.6568,66.2161 30.1146,72.743 l 2.5452,6.7589 -12.4166,4.5726 c -14.9907,5.5207 -32.9336,11.0219 -45.998,14.1029 l -9.6497,2.2757 -8.3251,-41.9832 z" id="27-1" transform="rotate(90 985 985)" class="red-square"/><path d="m 882.2016,1439.1535 c -17.933,-4.2712 -38.2756,-10.3084 -52.7583,-15.6573 -6.9448,-2.5649 -13.877,-5.1258 -15.4048,-5.691 -1.5279,-0.5651 -2.7698,-1.5512 -2.7597,-2.1913 0.035,-2.2381 34.2727,-85.0041 35.0538,-84.7389 29.8788,10.1438 41.8984,13.8285 54.0665,16.5746 8.1908,1.8484 14.8842,3.5881 14.8743,3.8659 -0.01,0.2778 -3.7742,20.7333 -8.365,45.4568 -7.5651,40.7408 -8.5327,44.9697 -10.3287,45.1428 -1.0898,0.105 -7.56,-1.1377 -14.3781,-2.7616 l 0,0 z" id="24-2" transform="rotate(90 985 985)" class="blue-square"/><path d="m 963.2884,1450.2253 c -16.8261,-0.7724 -44.4531,-3.8257 -56.6639,-6.2625 l -6.1565,-1.2285 7.7552,-41.9214 c 4.2653,-23.0567 8.0893,-43.6804 8.4977,-45.8304 0.7328,-3.8577 0.7915,-3.9007 4.4622,-3.265 12.0007,2.0781 28.1998,3.7763 45.0853,4.7263 10.5733,0.5949 19.2812,1.1618 19.3509,1.2597 0.07,0.098 0.4414,21.2018 0.8261,46.8975 l 0.6995,46.7196 -3.3419,-0.1535 c -1.8381,-0.084 -11.0696,-0.5082 -20.5146,-0.9418 z" id="25-2" transform="rotate(90 985 985)" class="black-square"/><path d="m 988.6984,1428.2562 c -0.3637,-12.4955 -0.6612,-33.519 -0.6612,-46.719 l 0,-24 6.3134,-0.553 c 3.4724,-0.3041 11.3137,-0.8242 17.4252,-1.1556 12.3138,-0.6678 21.3803,-1.7252 36.1065,-4.2112 5.4135,-0.9139 10.0088,-1.4693 10.2118,-1.2343 0.454,0.5254 17.8713,88.8556 17.8451,90.4997 -0.049,3.0993 -42.994,8.6046 -75.8766,9.727 l -10.7031,0.3654 -0.6611,-22.719 z" id="26-2" transform="rotate(90 985 985)" class="red-square"/><path d="m 1069.266,1395.3573 -9.1576,-45.8618 13.2093,-3.2071 c 14.6441,-3.5554 37.0604,-10.6403 48.2017,-15.2346 3.9867,-1.644 7.3371,-2.8715 7.4455,-2.7279 0.1083,0.1436 7.9477,19.8076 17.4209,43.6977 l 17.2239,43.4365 -4.7352,2.1574 c -16.172,7.368 -70.3456,23.6015 -78.7616,23.6015 -1.4198,0 -3.1508,-7.3188 -10.8469,-45.8617 l 0,0 z" id="27-2" transform="rotate(90 985 985)" class="yellow-square"/><path d="m 808.2301,1498.9623 c 0,-8.7989 0.2998,-29.6738 0.6662,-46.3888 l 0.6663,-30.3908 5.1421,2.0756 c 19.273,7.7794 43.2368,15.1334 66.9249,20.5376 8.4237,1.9218 15.5832,3.4942 15.91,3.4942 0.7831,0 0.7534,18.8023 -0.072,45.294 l -0.6658,21.3761 -44.286,0 -44.2861,0 0,-15.9979 z" id="24-3" transform="rotate(90 985 985)" class="black-square"/><path d="m 899.4852,1491.4741 c 0.3653,-12.9173 0.6652,-27.8697 0.6664,-33.2276 l 0,-9.7416 3.7882,0.841 c 14.2768,3.17 53.8854,7.0254 72.1752,7.0254 l 10.9097,0 0,29.2944 0,29.2945 -44.1029,0 -44.103,0 0.6641,-23.4861 z" id="25-3" transform="rotate(90 985 985)" class="yellow-square"/><path d="m 989.0473,1485.6657 0,-29.2944 9.849,0 c 16.733,-0.01 50.7357,-3.5222 74.2462,-7.6719 l 3.7881,-0.6686 0,33.4672 0,33.4672 -43.9416,0 -43.9417,0 0,-29.2945 z" id="26-3" transform="rotate(90 985 985)" class="blue-square"/><path d="m 1078.9509,1481.3079 0,-33.6523 12.3744,-2.792 c 23.0879,-5.2092 52.5522,-14.5309 73.7411,-23.3297 1.6688,-0.693 1.7678,1.9016 1.7678,46.3461 l 0,47.0802 -43.9417,0 -43.9416,0 0,-33.6523 z" id="27-3" transform="rotate(90 985 985)" class="red-square"/><rect id="24-4" x="808" y="1516" height="90" width="89" transform="rotate(90 985 985)" class="black-square"/><rect id="24-5" x="808" y="1605" height="90" width="89" transform="rotate(90 985 985)" class="blue-square"/><rect id="24-6" x="808" y="1694" height="90" width="89" transform="rotate(90 985 985)" class="blue-square"/><rect id="24-7" x="808" y="1783" height="90" width="89" transform="rotate(90 985 985)" class="red-square"/><rect id="24-8" x="808" y="1872" height="90" width="89" transform="rotate(90 985 985)" class="red-square"/><rect id="25-4" x="898" y="1516" height="90" width="89" transform="rotate(90 985 985)" class="yellow-square"/><rect id="25-5" x="898" y="1605" height="90" width="89" transform="rotate(90 985 985)" class="black-square"/><rect id="25-6" x="898" y="1694" height="90" width="89" transform="rotate(90 985 985)" class="red-square"/><rect id="25-7" x="898" y="1783" height="90" width="89" transform="rotate(90 985 985)" class="blue-square"/><rect id="25-8" x="898" y="1872" height="90" width="89" transform="rotate(90 985 985)" class="blue-square"/><rect id="26-4" x="988" y="1516" height="90" width="89" transform="rotate(90 985 985)" class="blue-square"/><rect id="26-5" x="988" y="1605" height="90" width="89" transform="rotate(90 985 985)" class="red-square"/><rect id="26-6" x="988" y="1694" height="90" width="89" transform="rotate(90 985 985)" class="black-square"/><rect id="26-7" x="988" y="1783" height="90" width="89" transform="rotate(90 985 985)" class="yellow-square"/><rect id="26-8" x="988" y="1872" height="90" width="89" transform="rotate(90 985 985)" class="yellow-square"/><rect id="27-4" x="1078" y="1516" height="90" width="89" transform="rotate(90 985 985)" class="red-square"/><rect id="27-5" x="1078" y="1605" height="90" width="89" transform="rotate(90 985 985)" class="yellow-square"/><rect id="27-6" x="1078" y="1694" height="90" width="89" transform="rotate(90 985 985)" class="yellow-square"/><rect id="27-7" x="1078" y="1783" height="90" width="89" transform="rotate(90 985 985)" class="black-square"/><rect id="27-8" x="1078" y="1872" height="90" width="89" transform="rotate(90 985 985)" class="black-square"/><path d="m 916.8214,1252.3048 c -10.1153,-2.6361 -30.6079,-9.3261 -33.5129,-10.9407 -0.8185,-0.4549 3.9944,-13.388 15.4703,-41.5715 9.1622,-22.5012 17.0136,-41.2731 17.4476,-41.7154 0.434,-0.4422 3.0183,0.066 5.7428,1.1288 2.7246,1.0632 10.0838,3.2142 16.354,4.7801 6.6386,1.6579 11.2345,3.296 11.0034,3.922 -0.2183,0.5911 -3.9667,20.5076 -8.3298,44.2589 l -7.933,43.184 -2.5653,-0.075 c -1.411,-0.041 -7.5657,-1.3783 -13.6771,-2.9709 z" id="28-0" transform="rotate(45 985 985)" class="black-square"/><path d="m 965.2179,1260.3687 c -12.7382,-1.0479 -27.2233,-3.0959 -28.8034,-4.0724 -1.0521,-0.6502 0.2777,-9.5089 6.5385,-43.5597 4.3226,-23.5089 8.0612,-43.4698 8.3082,-44.3574 0.3721,-1.3375 1.2891,-1.481 5.3551,-0.8383 2.6983,0.4266 10.1901,1.101 16.6483,1.4987 l 11.7421,0.723 0,45.8247 0,45.8246 -5.3033,-0.144 c -2.9168,-0.079 -9.4353,-0.4838 -14.4855,-0.8992 l 0,0 z" id="29-0" transform="rotate(45 985 985)" class="black-square"/><path d="m 987.027,1215.6343 0,-46.0009 5.8084,-0.5597 c 3.1946,-0.3078 10.8086,-1.2077 16.9201,-1.9998 6.1114,-0.7921 11.2316,-1.3242 11.3783,-1.1825 0.4396,0.4248 18.2594,89.9412 17.9648,90.2446 -0.7762,0.7992 -28.9671,4.2166 -39.6972,4.8122 l -12.3744,0.6869 0,-46.0008 z" id="30-0" transform="rotate(45 985 985)" class="yellow-square"/><path d="m 1041.0747,1254.0883 c -0.2404,-0.6945 -4.1178,-20.1273 -8.6164,-43.184 -4.4986,-23.0568 -8.4136,-42.8866 -8.7,-44.0664 -0.4685,-1.9303 0.2203,-2.3247 6.8804,-3.939 4.0706,-0.9866 11.4441,-3.3271 16.3856,-5.2011 4.9416,-1.874 9.235,-3.1569 9.5409,-2.851 0.3059,0.3059 8.5996,19.6502 18.4304,42.9872 l 17.8742,42.4309 -3.4042,1.4223 c -10.0176,4.1856 -42.2949,13.6328 -46.6594,13.6567 -0.7119,0 -1.4911,-0.5611 -1.7315,-1.2556 l 0,0 z" id="31-0" transform="rotate(45 985 985)" class="yellow-square"/><path d="m 902.5179,1343.2304 c -18.2404,-4.2868 -51.8376,-14.8779 -54.1469,-17.0693 -0.9983,-0.9472 31.9013,-81.4946 33.1549,-81.1727 0.5227,0.1341 6.8598,2.2908 14.0824,4.7925 7.2226,2.5016 18.4714,5.7892 24.9975,7.3056 9.4039,2.185 11.7706,3.0769 11.4073,4.2988 -0.2521,0.848 -3.6646,19.0427 -7.5832,40.4327 -8.5237,46.5263 -8.1079,44.4648 -8.9514,44.3729 -0.3726,-0.041 -6.2048,-1.3728 -12.9606,-2.9605 z" id="28-1" transform="rotate(45 985 985)" class="red-square"/><path d="m 960.7631,1351.6618 c -1.9446,-0.1872 -8.7631,-0.8401 -15.1523,-1.4507 -11.723,-1.1205 -25.9539,-3.2996 -26.7505,-4.0962 -0.2374,-0.2373 3.0975,-19.5063 7.4107,-42.8198 7.8185,-42.2592 7.8499,-42.388 10.3081,-42.2886 1.3561,0.055 8.6024,0.8498 16.1027,1.7666 7.5004,0.9167 17.7824,1.6673 22.8488,1.668 l 9.2118,0 0.6261,3.7881 c 0.3444,2.0835 0.6311,21.8572 0.6373,43.9417 l 0.011,40.1535 -10.8592,-0.1616 c -5.9725,-0.089 -12.4501,-0.3149 -14.3946,-0.5022 z" id="29-1" transform="rotate(45 985 985)" class="red-square"/><path d="m 987.8207,1314.6005 c -0.119,-20.92 -0.2327,-40.6501 -0.2525,-43.8447 l -0.036,-5.8084 14.6472,-0.6792 c 8.056,-0.3736 19.3866,-1.3964 25.1792,-2.2728 5.7926,-0.8765 11.068,-1.5937 11.7231,-1.5937 1.273,0 18.4217,83.4036 17.3659,84.4595 -1.8252,1.8251 -34.8136,6.0752 -55.1402,7.104 l -13.2701,0.6716 -0.2165,-38.0363 z" id="30-1" transform="rotate(45 985 985)" class="blue-square"/><path d="m 1050.8213,1302.89 c -4.5788,-23.0908 -8.305,-42.274 -8.2805,-42.6293 0.024,-0.3554 5.1585,-1.8879 11.4088,-3.4056 6.2503,-1.5177 17.8853,-5.0094 25.8555,-7.7594 7.9702,-2.75 14.6058,-4.854 14.7458,-4.6756 0.5168,0.6583 27.6568,66.2161 30.1146,72.743 l 2.5452,6.7589 -12.4166,4.5726 c -14.9907,5.5207 -32.9336,11.0219 -45.998,14.1029 l -9.6497,2.2757 -8.3251,-41.9832 z" id="31-1" transform="rotate(45 985 985)" class="blue-square"/><path d="m 882.2016,1439.1535 c -17.933,-4.2712 -38.2756,-10.3084 -52.7583,-15.6573 -6.9448,-2.5649 -13.877,-5.1258 -15.4048,-5.691 -1.5279,-0.5651 -2.7698,-1.5512 -2.7597,-2.1913 0.035,-2.2381 34.2727,-85.0041 35.0538,-84.7389 29.8788,10.1438 41.8984,13.8285 54.0665,16.5746 8.1908,1.8484 14.8842,3.5881 14.8743,3.8659 -0.01,0.2778 -3.7742,20.7333 -8.365,45.4568 -7.5651,40.7408 -8.5327,44.9697 -10.3287,45.1428 -1.0898,0.105 -7.56,-1.1377 -14.3781,-2.7616 l 0,0 z" id="28-2" transform="rotate(45 985 985)" class="blue-square"/><path d="m 963.2884,1450.2253 c -16.8261,-0.7724 -44.4531,-3.8257 -56.6639,-6.2625 l -6.1565,-1.2285 7.7552,-41.9214 c 4.2653,-23.0567 8.0893,-43.6804 8.4977,-45.8304 0.7328,-3.8577 0.7915,-3.9007 4.4622,-3.265 12.0007,2.0781 28.1998,3.7763 45.0853,4.7263 10.5733,0.5949 19.2812,1.1618 19.3509,1.2597 0.07,0.098 0.4414,21.2018 0.8261,46.8975 l 0.6995,46.7196 -3.3419,-0.1535 c -1.8381,-0.084 -11.0696,-0.5082 -20.5146,-0.9418 z" id="29-2" transform="rotate(45 985 985)" class="black-square"/><path d="m 988.6984,1428.2562 c -0.3637,-12.4955 -0.6612,-33.519 -0.6612,-46.719 l 0,-24 6.3134,-0.553 c 3.4724,-0.3041 11.3137,-0.8242 17.4252,-1.1556 12.3138,-0.6678 21.3803,-1.7252 36.1065,-4.2112 5.4135,-0.9139 10.0088,-1.4693 10.2118,-1.2343 0.454,0.5254 17.8713,88.8556 17.8451,90.4997 -0.049,3.0993 -42.994,8.6046 -75.8766,9.727 l -10.7031,0.3654 -0.6611,-22.719 z" id="30-2" transform="rotate(45 985 985)" class="red-square"/><path d="m 1069.266,1395.3573 -9.1576,-45.8618 13.2093,-3.2071 c 14.6441,-3.5554 37.0604,-10.6403 48.2017,-15.2346 3.9867,-1.644 7.3371,-2.8715 7.4455,-2.7279 0.1083,0.1436 7.9477,19.8076 17.4209,43.6977 l 17.2239,43.4365 -4.7352,2.1574 c -16.172,7.368 -70.3456,23.6015 -78.7616,23.6015 -1.4198,0 -3.1508,-7.3188 -10.8469,-45.8617 l 0,0 z" id="31-2" transform="rotate(45 985 985)" class="yellow-square"/><path d="m 808.2301,1498.9623 c 0,-8.7989 0.2998,-29.6738 0.6662,-46.3888 l 0.6663,-30.3908 5.1421,2.0756 c 19.273,7.7794 43.2368,15.1334 66.9249,20.5376 8.4237,1.9218 15.5832,3.4942 15.91,3.4942 0.7831,0 0.7534,18.8023 -0.072,45.294 l -0.6658,21.3761 -44.286,0 -44.2861,0 0,-15.9979 z" id="28-3" transform="rotate(45 985 985)" class="black-square"/><path d="m 899.4852,1491.4741 c 0.3653,-12.9173 0.6652,-27.8697 0.6664,-33.2276 l 0,-9.7416 3.7882,0.841 c 14.2768,3.17 53.8854,7.0254 72.1752,7.0254 l 10.9097,0 0,29.2944 0,29.2945 -44.1029,0 -44.103,0 0.6641,-23.4861 z" id="29-3" transform="rotate(45 985 985)" class="yellow-square"/><path d="m 989.0473,1485.6657 0,-29.2944 9.849,0 c 16.733,-0.01 50.7357,-3.5222 74.2462,-7.6719 l 3.7881,-0.6686 0,33.4672 0,33.4672 -43.9416,0 -43.9417,0 0,-29.2945 z" id="30-3" transform="rotate(45 985 985)" class="blue-square"/><path d="m 1078.9509,1481.3079 0,-33.6523 12.3744,-2.792 c 23.0879,-5.2092 52.5522,-14.5309 73.7411,-23.3297 1.6688,-0.693 1.7678,1.9016 1.7678,46.3461 l 0,47.0802 -43.9417,0 -43.9416,0 0,-33.6523 z" id="31-3" transform="rotate(45 985 985)" class="red-square"/><rect id="28-4" x="808" y="1516" height="90" width="89" transform="rotate(45 985 985)" class="black-square"/><rect id="28-5" x="808" y="1605" height="90" width="89" transform="rotate(45 985 985)" class="blue-square"/><rect id="28-6" x="808" y="1694" height="90" width="89" transform="rotate(45 985 985)" class="blue-square"/><rect id="28-7" x="808" y="1783" height="90" width="89" transform="rotate(45 985 985)" class="red-square"/><rect id="28-8" x="808" y="1872" height="90" width="89" transform="rotate(45 985 985)" class="red-square"/><rect id="29-4" x="898" y="1516" height="90" width="89" transform="rotate(45 985 985)" class="yellow-square"/><rect id="29-5" x="898" y="1605" height="90" width="89" transform="rotate(45 985 985)" class="black-square"/><rect id="29-6" x="898" y="1694" height="90" width="89" transform="rotate(45 985 985)" class="red-square"/><rect id="29-7" x="898" y="1783" height="90" width="89" transform="rotate(45 985 985)" class="blue-square"/><rect id="29-8" x="898" y="1872" height="90" width="89" transform="rotate(45 985 985)" class="blue-square"/><rect id="30-4" x="988" y="1516" height="90" width="89" transform="rotate(45 985 985)" class="blue-square"/><rect id="30-5" x="988" y="1605" height="90" width="89" transform="rotate(45 985 985)" class="red-square"/><rect id="30-6" x="988" y="1694" height="90" width="89" transform="rotate(45 985 985)" class="black-square"/><rect id="30-7" x="988" y="1783" height="90" width="89" transform="rotate(45 985 985)" class="yellow-square"/><rect id="30-8" x="988" y="1872" height="90" width="89" transform="rotate(45 985 985)" class="yellow-square"/><rect id="31-4" x="1078" y="1516" height="90" width="89" transform="rotate(45 985 985)" class="red-square"/><rect id="31-5" x="1078" y="1605" height="90" width="89" transform="rotate(45 985 985)" class="yellow-square"/><rect id="31-6" x="1078" y="1694" height="90" width="89" transform="rotate(45 985 985)" class="yellow-square"/><rect id="31-7" x="1078" y="1783" height="90" width="89" transform="rotate(45 985 985)" class="black-square"/><rect id="31-8" x="1078" y="1872" height="90" width="89" transform="rotate(45 985 985)" class="black-square"/></g>
</svg>
